<svg version="1.1" viewBox="0.0 0.0 500.75853018372703 162.26246719160105" fill="none" stroke="none" stroke-linecap="square" stroke-miterlimit="10" xmlns:xlink="http://www.w3.org/1999/xlink" xmlns="http://www.w3.org/2000/svg"><clipPath id="p.0"><path d="m0 0l500.75854 0l0 162.26247l-500.75854 0l0 -162.26247z" clip-rule="nonzero"/></clipPath><g clip-path="url(#p.0)"><path fill="#000000" fill-opacity="0.0" d="m0 0l500.75854 0l0 162.26247l-500.75854 0z" fill-rule="evenodd"/><path fill="#000000" fill-opacity="0.0" d="m208.4042 140.15617c0 -8.125992 4.9369965 -12.18898 9.874008 -16.251976c4.9370117 -4.0629883 9.874023 -8.125984 9.874023 -16.251968" fill-rule="evenodd"/><path stroke="#999999" stroke-width="2.0" stroke-linejoin="round" stroke-linecap="butt" stroke-dasharray="2.0,6.0" d="m208.4042 140.15617c0 -8.125992 4.9369965 -12.18898 9.874008 -16.251976c2.4685059 -2.0314941 4.9370117 -4.0629883 6.788391 -6.6023636c0.46284485 -0.6348419 0.8871155 -1.3014221 1.2631836 -2.0076828c0.0940094 -0.1765747 0.18501282 -0.3556137 0.2728424 -0.53726196c0.043914795 -0.09082794 0.08703613 -0.18230438 0.12936401 -0.27444458l0.05105591 -0.11418152" fill-rule="evenodd"/><path fill="#999999" stroke="#999999" stroke-width="2.0" stroke-linecap="butt" d="m226.78307 114.36826l1.7545471 2.653122l-0.96943665 -6.50428l-3.4382477 5.6057053z" fill-rule="evenodd"/><path fill="#000000" fill-opacity="0.0" d="m406.90814 136.30577c0 -10.472435 -13.905518 -20.944878 -27.811035 -20.944878" fill-rule="evenodd"/><path stroke="#999999" stroke-width="2.0" stroke-linejoin="round" stroke-linecap="butt" stroke-dasharray="2.0,6.0" d="m406.90814 136.30577c0 -5.2362213 -3.4763794 -10.472435 -8.6909485 -14.399605c-2.6072998 -1.9635773 -5.649109 -3.5998993 -8.908234 -4.745323c-0.8147888 -0.28635406 -1.6431274 -0.54203796 -2.481659 -0.76446533c-0.20965576 -0.055610657 -0.41989136 -0.10913849 -0.6307678 -0.16056061l-0.2928772 -0.06826782" fill-rule="evenodd"/><path fill="#999999" stroke="#999999" stroke-width="2.0" stroke-linecap="butt" d="m385.90366 116.16755l2.49823 -1.9688416l-6.4012756 1.506279l5.871887 2.9607925z" fill-rule="evenodd"/><path fill="#000000" fill-opacity="0.0" d="m183.03412 78.88845c21.637802 0 32.456696 12.385826 43.27559 24.771652c10.818909 12.385826 21.637802 24.77166 43.27559 24.77166" fill-rule="evenodd"/><path stroke="#4a86e8" stroke-width="3.0" stroke-linejoin="round" stroke-linecap="butt" d="m183.03412 78.88845c21.637802 0 32.456696 12.385826 43.27559 24.771652c10.818909 12.385826 21.637802 24.77166 43.27559 24.77166" fill-rule="evenodd"/><path fill="#000000" fill-opacity="0.0" d="m345.46982 128.43701c22.456696 0 33.685028 -12.330711 44.91339 -24.661423c11.2283325 -12.330704 22.456696 -24.661415 44.91339 -24.661415" fill-rule="evenodd"/><path stroke="#4a86e8" stroke-width="3.0" stroke-linejoin="round" stroke-linecap="butt" d="m345.46982 128.43701c22.456696 0 33.685028 -12.330711 44.91339 -24.661423c11.2283325 -12.330704 22.456696 -24.661415 44.91339 -24.661415" fill-rule="evenodd"/><path fill="#000000" fill-opacity="0.0" d="m236.9685 78.891075c23.834656 0 35.751953 -17.251968 47.66928 -34.503937c11.917328 -17.251968 23.834656 -34.503937 47.66931 -34.503937" fill-rule="evenodd"/><path stroke="#4a86e8" stroke-width="3.0" stroke-linejoin="round" stroke-linecap="butt" d="m236.9685 78.891075c23.834656 0 35.751953 -17.251968 47.66928 -34.503937c11.917328 -17.251968 23.834656 -34.503937 47.66931 -34.503937" fill-rule="evenodd"/><path fill="#000000" fill-opacity="0.0" d="m144.77428 78.88845l310.5512 0" fill-rule="evenodd"/><path stroke="#f4b400" stroke-width="3.0" stroke-linejoin="round" stroke-linecap="butt" d="m144.77428 78.88845l292.5512 0" fill-rule="evenodd"/><path fill="#f4b400" stroke="#f4b400" stroke-width="3.0" stroke-linecap="butt" d="m437.32547 83.84365l13.614288 -4.9552l-13.614288 -4.9552z" fill-rule="evenodd"/><path fill="#000000" fill-opacity="0.0" d="m269.5853 128.42651l82.17325 0" fill-rule="evenodd"/><path stroke="#4a86e8" stroke-width="3.0" stroke-linejoin="round" stroke-linecap="butt" d="m269.5853 128.42651l64.17325 0" fill-rule="evenodd"/><path fill="#4a86e8" stroke="#4a86e8" stroke-width="3.0" stroke-linecap="butt" d="m333.75854 133.38171l13.614288 -4.9552l-13.614288 -4.9552z" fill-rule="evenodd"/><path fill="#000000" fill-opacity="0.0" d="m455.32285 97.64698l0 -36.976376" fill-rule="evenodd"/><path stroke="#f4b400" stroke-width="2.0" stroke-linejoin="round" stroke-linecap="butt" d="m455.32285 97.64698l0 -36.976376" fill-rule="evenodd"/><path fill="#000000" fill-opacity="0.0" d="m148.33858 78.261154l0 -17.574802" fill-rule="evenodd"/><path stroke="#0f9d58" stroke-width="2.0" stroke-linejoin="round" stroke-linecap="butt" d="m148.33858 78.261154l0 -17.574802" fill-rule="evenodd"/><path fill="#000000" fill-opacity="0.0" d="m75.69292 78.88845l75.968506 0" fill-rule="evenodd"/><path stroke="#0f9d58" stroke-width="3.0" stroke-linejoin="round" stroke-linecap="butt" d="m75.69292 78.88845l57.968506 0" fill-rule="evenodd"/><path fill="#0f9d58" stroke="#0f9d58" stroke-width="3.0" stroke-linecap="butt" d="m133.66142 83.84365l13.614288 -4.9552l-13.614288 -4.9552z" fill-rule="evenodd"/><path fill="#000000" fill-opacity="0.0" d="m1.2572179 79.51706l86.55118 0l0 21.952759l-86.55118 0z" fill-rule="evenodd"/><path fill="#0f9d58" d="m29.314743 93.432816q0 -0.375 -0.375 -0.59375q-0.375 -0.21875 -1.203125 -0.390625q-2.765625 -0.578125 -2.765625 -2.34375q0 -1.03125 0.859375 -1.71875q0.859375 -0.703125 2.234375 -0.703125q1.46875 0 2.359375 0.703125q0.890625 0.6875 0.890625 1.796875l-2.078125 0q0 -0.4375 -0.28125 -0.71875q-0.28125 -0.296875 -0.890625 -0.296875q-0.53125 0 -0.8125 0.234375q-0.28125 0.234375 -0.28125 0.59375q0 0.34375 0.3125 0.5625q0.328125 0.203125 1.09375 0.359375q0.78125 0.15625 1.3125 0.34375q1.640625 0.609375 1.640625 2.09375q0 1.046875 -0.90625 1.703125q-0.90625 0.65625 -2.34375 0.65625q-0.984375 0 -1.734375 -0.34375q-0.75 -0.34375 -1.1875 -0.953125q-0.421875 -0.609375 -0.421875 -1.3125l1.953125 0q0.03125 0.5625 0.40625 0.859375q0.390625 0.28125 1.015625 0.28125q0.59375 0 0.890625 -0.21875q0.3125 -0.234375 0.3125 -0.59375zm5.81691 -7.5l0 1.890625l1.328125 0l0 1.53125l-1.328125 0l0 3.859375q0 0.421875 0.15625 0.609375q0.171875 0.1875 0.640625 0.1875q0.34375 0 0.609375 -0.046875l0 1.5625q-0.609375 0.1875 -1.25 0.1875q-2.171875 0 -2.21875 -2.1875l0 -4.171875l-1.125 0l0 -1.53125l1.125 0l0 -1.890625l2.0625 0zm6.9678345 9.640625q-0.140625 -0.28125 -0.203125 -0.6875q-0.75 0.828125 -1.953125 0.828125q-1.140625 0 -1.890625 -0.65625q-0.75 -0.65625 -0.75 -1.65625q0 -1.234375 0.90625 -1.890625q0.921875 -0.65625 2.640625 -0.671875l0.953125 0l0 -0.4375q0 -0.53125 -0.28125 -0.859375q-0.265625 -0.328125 -0.859375 -0.328125q-0.515625 0 -0.8125 0.25q-0.296875 0.25 -0.296875 0.6875l-2.078125 0q0 -0.671875 0.40625 -1.234375q0.421875 -0.578125 1.171875 -0.90625q0.765625 -0.328125 1.71875 -0.328125q1.421875 0 2.265625 0.71875q0.84375 0.71875 0.84375 2.03125l0 3.34375q0.015625 1.109375 0.3125 1.671875l0 0.125l-2.09375 0zm-1.703125 -1.4375q0.453125 0 0.828125 -0.203125q0.390625 -0.203125 0.578125 -0.546875l0 -1.328125l-0.765625 0q-1.5625 0 -1.65625 1.0625l0 0.125q0 0.390625 0.265625 0.640625q0.265625 0.25 0.75 0.25zm12.045197 -2.359375q0 1.859375 -0.796875 2.90625q-0.78125 1.03125 -2.203125 1.03125q-1.265625 0 -2.015625 -0.96875l-0.09375 0.828125l-1.859375 0l0 -11.0l2.0625 0l0 3.953125q0.71875 -0.84375 1.890625 -0.84375q1.40625 0 2.203125 1.046875q0.8125 1.046875 0.8125 2.921875l0 0.125zm-2.0625 -0.15625q0 -1.171875 -0.375 -1.703125q-0.375 -0.546875 -1.109375 -0.546875q-0.984375 0 -1.359375 0.8125l0 3.046875q0.375 0.8125 1.375 0.8125q1.0 0 1.3125 -0.984375q0.15625 -0.46875 0.15625 -1.4375zm5.532547 3.953125l-2.078125 0l0 -11.0l2.078125 0l0 11.0zm5.26091 0.140625q-1.703125 0 -2.78125 -1.046875q-1.0625 -1.046875 -1.0625 -2.78125l0 -0.203125q0 -1.15625 0.453125 -2.078125q0.453125 -0.921875 1.265625 -1.421875q0.828125 -0.5 1.890625 -0.5q1.59375 0 2.5 1.015625q0.921875 1.0 0.921875 2.828125l0 0.84375l-4.9375 0q0.109375 0.765625 0.609375 1.21875q0.5 0.453125 1.28125 0.453125q1.1875 0 1.859375 -0.859375l1.015625 1.140625q-0.46875 0.65625 -1.265625 1.03125q-0.78125 0.359375 -1.75 0.359375zm-0.234375 -6.359375q-0.625 0 -1.015625 0.421875q-0.375 0.421875 -0.46875 1.1875l2.875 0l0 -0.15625q-0.015625 -0.6875 -0.375 -1.0625q-0.359375 -0.390625 -1.015625 -0.390625z" fill-rule="nonzero"/><path fill="#000000" fill-opacity="0.0" d="m334.50787 56.20341l105.98425 0l0 21.952755l-105.98425 0z" fill-rule="evenodd"/><path fill="#f4b400" d="m367.08353 64.50979l0.0625 0.875q0.828125 -1.015625 2.234375 -1.015625q1.484375 0 2.046875 1.1875q0.8125 -1.1875 2.328125 -1.1875q1.25 0 1.859375 0.734375q0.625 0.734375 0.625 2.21875l0 4.9375l-2.078125 0l0 -4.9375q0 -0.65625 -0.265625 -0.953125q-0.25 -0.3125 -0.890625 -0.3125q-0.9375 0 -1.296875 0.890625l0.015625 5.3125l-2.078125 0l0 -4.9375q0 -0.671875 -0.265625 -0.96875q-0.265625 -0.296875 -0.890625 -0.296875q-0.890625 0 -1.28125 0.734375l0 5.46875l-2.0625 0l0 -7.75l1.9375 0zm15.235107 7.75q-0.140625 -0.28125 -0.203125 -0.6875q-0.75 0.828125 -1.953125 0.828125q-1.140625 0 -1.890625 -0.65625q-0.75 -0.65625 -0.75 -1.65625q0 -1.234375 0.90625 -1.890625q0.921875 -0.65625 2.640625 -0.671875l0.953125 0l0 -0.4375q0 -0.53125 -0.28125 -0.859375q-0.265625 -0.328125 -0.859375 -0.328125q-0.515625 0 -0.8125 0.25q-0.296875 0.25 -0.296875 0.6875l-2.078125 0q0 -0.671875 0.40625 -1.234375q0.421875 -0.578125 1.171875 -0.90625q0.765625 -0.328125 1.71875 -0.328125q1.421875 0 2.265625 0.71875q0.84375 0.71875 0.84375 2.03125l0 3.34375q0.015625 1.109375 0.3125 1.671875l0 0.125l-2.09375 0zm-1.703125 -1.4375q0.453125 0 0.828125 -0.203125q0.390625 -0.203125 0.578125 -0.546875l0 -1.328125l-0.765625 0q-1.5625 0 -1.65625 1.0625l0 0.125q0 0.390625 0.265625 0.640625q0.265625 0.25 0.75 0.25zm9.263947 -0.703125q0 -0.375 -0.375 -0.59375q-0.375 -0.21875 -1.203125 -0.390625q-2.765625 -0.578125 -2.765625 -2.34375q0 -1.03125 0.859375 -1.71875q0.859375 -0.703125 2.234375 -0.703125q1.46875 0 2.359375 0.703125q0.890625 0.6875 0.890625 1.796875l-2.078125 0q0 -0.4375 -0.28125 -0.71875q-0.28125 -0.296875 -0.890625 -0.296875q-0.53125 0 -0.8125 0.234375q-0.28125 0.234375 -0.28125 0.59375q0 0.34375 0.3125 0.5625q0.328125 0.203125 1.09375 0.359375q0.78125 0.15625 1.3125 0.34375q1.640625 0.609375 1.640625 2.09375q0 1.046875 -0.90625 1.703125q-0.90625 0.65625 -2.34375 0.65625q-0.984375 0 -1.734375 -0.34375q-0.75 -0.34375 -1.1875 -0.953125q-0.421875 -0.609375 -0.421875 -1.3125l1.953125 0q0.03125 0.5625 0.40625 0.859375q0.390625 0.28125 1.015625 0.28125q0.59375 0 0.890625 -0.21875q0.3125 -0.234375 0.3125 -0.59375zm5.816925 -7.5l0 1.890625l1.328125 0l0 1.53125l-1.328125 0l0 3.859375q0 0.421875 0.15625 0.609375q0.171875 0.1875 0.640625 0.1875q0.34375 0 0.609375 -0.046875l0 1.5625q-0.609375 0.1875 -1.25 0.1875q-2.171875 0 -2.21875 -2.1875l0 -4.171875l-1.125 0l0 -1.53125l1.125 0l0 -1.890625l2.0625 0zm6.0459595 9.78125q-1.703125 0 -2.78125 -1.046875q-1.0625 -1.046875 -1.0625 -2.78125l0 -0.203125q0 -1.15625 0.453125 -2.078125q0.453125 -0.921875 1.265625 -1.421875q0.828125 -0.5 1.890625 -0.5q1.59375 0 2.5 1.015625q0.921875 1.0 0.921875 2.828125l0 0.84375l-4.9375 0q0.109375 0.765625 0.609375 1.21875q0.5 0.453125 1.28125 0.453125q1.1875 0 1.859375 -0.859375l1.015625 1.140625q-0.46875 0.65625 -1.265625 1.03125q-0.78125 0.359375 -1.75 0.359375zm-0.234375 -6.359375q-0.625 0 -1.015625 0.421875q-0.375 0.421875 -0.46875 1.1875l2.875 0l0 -0.15625q-0.015625 -0.6875 -0.375 -1.0625q-0.359375 -0.390625 -1.015625 -0.390625zm8.937714 0.421875q-0.421875 -0.0625 -0.734375 -0.0625q-1.171875 0 -1.546875 0.796875l0 5.0625l-2.0625 0l0 -7.75l1.953125 0l0.0625 0.9375q0.609375 -1.078125 1.71875 -1.078125q0.34375 0 0.640625 0.09375l-0.03125 2.0z" fill-rule="nonzero"/><path fill="#000000" fill-opacity="0.0" d="m283.14435 80.255905c0 11.724411 6.2913513 17.586617 12.582672 23.448822c6.2913513 5.8622055 12.582703 11.724403 12.582703 23.448814" fill-rule="evenodd"/><path stroke="#a4c2f4" stroke-width="1.0" stroke-linejoin="round" stroke-linecap="butt" stroke-dasharray="1.0,3.0" d="m283.14435 80.255905c0 11.724411 6.2913513 17.586617 12.582672 23.448822c3.145691 2.931099 6.2913513 5.8622055 8.650604 9.526077c1.1796265 1.8319397 2.1626587 3.8470764 2.850769 6.137001c0.34405518 1.1449585 0.6143799 2.358612 0.79870605 3.65242c0.023040771 0.1617279 0.04473877 0.32471466 0.06506348 0.48896027l0.025482178 0.22265625" fill-rule="evenodd"/><path fill="#a4c2f4" stroke="#a4c2f4" stroke-width="1.0" stroke-linecap="butt" d="m308.11765 123.73184l-1.185852 -1.0597916l1.29599 3.0218887l0.949646 -3.147934z" fill-rule="evenodd"/><path fill="#000000" fill-opacity="0.0" d="m329.79266 9.891076l119.370056 0" fill-rule="evenodd"/><path stroke="#4a86e8" stroke-width="3.0" stroke-linejoin="round" stroke-linecap="butt" d="m329.79266 9.891076l101.370056 0" fill-rule="evenodd"/><path fill="#4a86e8" stroke="#4a86e8" stroke-width="3.0" stroke-linecap="butt" d="m431.16272 14.846273l13.614288 -4.9551973l-13.614288 -4.9551973z" fill-rule="evenodd"/><path fill="#000000" fill-opacity="0.0" d="m93.71654 78.261154l0 -17.574802" fill-rule="evenodd"/><path stroke="#424242" stroke-width="1.0" stroke-linejoin="round" stroke-linecap="butt" d="m93.71654 78.261154l0 -17.574802" fill-rule="evenodd"/><path fill="#000000" fill-opacity="0.0" d="m34.75328 78.261154l0 -17.574802" fill-rule="evenodd"/><path stroke="#424242" stroke-width="1.0" stroke-linejoin="round" stroke-linecap="butt" d="m34.75328 78.261154l0 -17.574802" fill-rule="evenodd"/><path fill="#000000" fill-opacity="0.0" d="m1.2572179 38.733597l66.99213 0l0 21.952755l-66.99213 0z" fill-rule="evenodd"/><path fill="#000000" d="m26.753822 50.463097q0 2.125 -0.734375 3.15625q-0.71875 1.015625 -2.25 1.015625q-1.515625 0 -2.25 -1.0q-0.71875 -1.0 -0.75 -3.0l0 -1.609375q0 -2.09375 0.71875 -3.109375q0.71875 -1.015625 2.265625 -1.015625q1.53125 0 2.25 0.984375q0.71875 0.984375 0.75 3.015625l0 1.5625zm-1.203125 -1.640625q0 -1.53125 -0.4375 -2.21875q-0.421875 -0.703125 -1.359375 -0.703125q-0.921875 0 -1.34375 0.703125q-0.421875 0.6875 -0.4375 2.125l0 1.921875q0 1.546875 0.4375 2.28125q0.453125 0.71875 1.359375 0.71875q0.890625 0 1.3125 -0.6875q0.4375 -0.6875 0.46875 -2.171875l0 -1.96875zm2.8903046 5.0625q0 -0.3125 0.1875 -0.515625q0.1875 -0.21875 0.546875 -0.21875q0.375 0 0.5625 0.21875q0.203125 0.203125 0.203125 0.515625q0 0.296875 -0.203125 0.5q-0.1875 0.203125 -0.5625 0.203125q-0.359375 0 -0.546875 -0.203125q-0.1875 -0.203125 -0.1875 -0.5zm7.3202515 0.625l-1.21875 0l0 -8.03125l-2.421875 0.90625l0 -1.09375l3.453125 -1.296875l0.1875 0l0 9.515625zm3.6715546 -0.625q0 -0.3125 0.1875 -0.515625q0.1875 -0.21875 0.546875 -0.21875q0.375 0 0.5625 0.21875q0.203125 0.203125 0.203125 0.515625q0 0.296875 -0.203125 0.5q-0.1875 0.203125 -0.5625 0.203125q-0.359375 0 -0.546875 -0.203125q-0.1875 -0.203125 -0.1875 -0.5zm9.304626 -3.421875q0 2.125 -0.734375 3.15625q-0.71875 1.015625 -2.25 1.015625q-1.515625 0 -2.25 -1.0q-0.71875 -1.0 -0.75 -3.0l0 -1.609375q0 -2.09375 0.71875 -3.109375q0.71875 -1.015625 2.265625 -1.015625q1.53125 0 2.25 0.984375q0.71875 0.984375 0.75 3.015625l0 1.5625zm-1.203125 -1.640625q0 -1.53125 -0.4375 -2.21875q-0.421875 -0.703125 -1.359375 -0.703125q-0.921875 0 -1.34375 0.703125q-0.421875 0.6875 -0.4375 2.125l0 1.921875q0 1.546875 0.4375 2.28125q0.453125 0.71875 1.359375 0.71875q0.890625 0 1.3125 -0.6875q0.4375 -0.6875 0.46875 -2.171875l0 -1.96875z" fill-rule="nonzero"/><path fill="#000000" fill-opacity="0.0" d="m60.220474 38.733597l66.99213 0l0 21.952755l-66.99213 0z" fill-rule="evenodd"/><path fill="#000000" d="m85.71708 50.463097q0 2.125 -0.734375 3.15625q-0.71875 1.015625 -2.25 1.015625q-1.515625 0 -2.25 -1.0q-0.71875 -1.0 -0.75 -3.0l0 -1.609375q0 -2.09375 0.71875 -3.109375q0.71875 -1.015625 2.265625 -1.015625q1.53125 0 2.25 0.984375q0.71875 0.984375 0.75 3.015625l0 1.5625zm-1.203125 -1.640625q0 -1.53125 -0.4375 -2.21875q-0.421875 -0.703125 -1.359375 -0.703125q-0.921875 0 -1.34375 0.703125q-0.421875 0.6875 -0.4375 2.125l0 1.921875q0 1.546875 0.4375 2.28125q0.453125 0.71875 1.359375 0.71875q0.890625 0 1.3125 -0.6875q0.4375 -0.6875 0.46875 -2.171875l0 -1.96875zm2.8903046 5.0625q0 -0.3125 0.1875 -0.515625q0.1875 -0.21875 0.546875 -0.21875q0.375 0 0.5625 0.21875q0.203125 0.203125 0.203125 0.515625q0 0.296875 -0.203125 0.5q-0.1875 0.203125 -0.5625 0.203125q-0.359375 0 -0.546875 -0.203125q-0.1875 -0.203125 -0.1875 -0.5zm7.3202515 0.625l-1.21875 0l0 -8.03125l-2.421875 0.90625l0 -1.09375l3.453125 -1.296875l0.1875 0l0 9.515625zm3.6715546 -0.625q0 -0.3125 0.1875 -0.515625q0.1875 -0.21875 0.546875 -0.21875q0.375 0 0.5625 0.21875q0.203125 0.203125 0.203125 0.515625q0 0.296875 -0.203125 0.5q-0.1875 0.203125 -0.5625 0.203125q-0.359375 0 -0.546875 -0.203125q-0.1875 -0.203125 -0.1875 -0.5zm7.3202515 0.625l-1.21875 0l0 -8.03125l-2.421875 0.90625l0 -1.09375l3.453125 -1.296875l0.1875 0l0 9.515625z" fill-rule="nonzero"/><path fill="#000000" fill-opacity="0.0" d="m115.04199 38.733597l66.99213 0l0 21.952755l-66.99213 0z" fill-rule="evenodd"/><path fill="#000000" d="m140.5386 50.463097q0 2.125 -0.734375 3.15625q-0.71875 1.015625 -2.25 1.015625q-1.515625 0 -2.25 -1.0q-0.71875 -1.0 -0.75 -3.0l0 -1.609375q0 -2.09375 0.71875 -3.109375q0.71875 -1.015625 2.265625 -1.015625q1.53125 0 2.25 0.984375q0.71875 0.984375 0.75 3.015625l0 1.5625zm-1.203125 -1.640625q0 -1.53125 -0.4375 -2.21875q-0.421875 -0.703125 -1.359375 -0.703125q-0.921875 0 -1.34375 0.703125q-0.421875 0.6875 -0.4375 2.125l0 1.921875q0 1.546875 0.4375 2.28125q0.453125 0.71875 1.359375 0.71875q0.890625 0 1.3125 -0.6875q0.4375 -0.6875 0.46875 -2.171875l0 -1.96875zm2.8903046 5.0625q0 -0.3125 0.1875 -0.515625q0.1875 -0.21875 0.546875 -0.21875q0.375 0 0.5625 0.21875q0.203125 0.203125 0.203125 0.515625q0 0.296875 -0.203125 0.5q-0.1875 0.203125 -0.5625 0.203125q-0.359375 0 -0.546875 -0.203125q-0.1875 -0.203125 -0.1875 -0.5zm9.570251 0.625l-6.21875 0l0 -0.859375l3.28125 -3.65625q0.734375 -0.828125 1.0 -1.34375q0.28125 -0.515625 0.28125 -1.0625q0 -0.75 -0.453125 -1.21875q-0.4375 -0.46875 -1.1875 -0.46875q-0.890625 0 -1.390625 0.515625q-0.5 0.5 -0.5 1.40625l-1.203125 0q0 -1.296875 0.84375 -2.109375q0.84375 -0.8125 2.25 -0.8125q1.328125 0 2.09375 0.703125q0.765625 0.6875 0.765625 1.84375q0 1.390625 -1.78125 3.328125l-2.546875 2.75l4.765625 0l0 0.984375zm1.4215546 -0.625q0 -0.3125 0.1875 -0.515625q0.1875 -0.21875 0.546875 -0.21875q0.375 0 0.5625 0.21875q0.203125 0.203125 0.203125 0.515625q0 0.296875 -0.203125 0.5q-0.1875 0.203125 -0.5625 0.203125q-0.359375 0 -0.546875 -0.203125q-0.1875 -0.203125 -0.1875 -0.5zm9.304626 -3.421875q0 2.125 -0.734375 3.15625q-0.71875 1.015625 -2.25 1.015625q-1.515625 0 -2.25 -1.0q-0.71875 -1.0 -0.75 -3.0l0 -1.609375q0 -2.09375 0.71875 -3.109375q0.71875 -1.015625 2.265625 -1.015625q1.53125 0 2.25 0.984375q0.71875 0.984375 0.75 3.015625l0 1.5625zm-1.203125 -1.640625q0 -1.53125 -0.4375 -2.21875q-0.421875 -0.703125 -1.359375 -0.703125q-0.921875 0 -1.34375 0.703125q-0.421875 0.6875 -0.4375 2.125l0 1.921875q0 1.546875 0.4375 2.28125q0.453125 0.71875 1.359375 0.71875q0.890625 0 1.3125 -0.6875q0.4375 -0.6875 0.46875 -2.171875l0 -1.96875z" fill-rule="nonzero"/><path fill="#000000" fill-opacity="0.0" d="m223.81364 129.74934l126.67717 0l0 21.952759l-126.67717 0z" fill-rule="evenodd"/><path fill="#4a86e8" d="m249.91519 145.94635q-1.703125 0 -2.78125 -1.046875q-1.0625 -1.046875 -1.0625 -2.78125l0 -0.203125q0 -1.15625 0.453125 -2.078125q0.453125 -0.921875 1.265625 -1.421875q0.828125 -0.5 1.890625 -0.5q1.59375 0 2.5 1.015625q0.921875 1.0 0.921875 2.828125l0 0.84375l-4.9375 0q0.109375 0.765625 0.609375 1.21875q0.5 0.453125 1.28125 0.453125q1.1875 0 1.859375 -0.859375l1.015625 1.140625q-0.46875 0.65625 -1.265625 1.03125q-0.78125 0.359375 -1.75 0.359375zm-0.234375 -6.359375q-0.625 0 -1.015625 0.421875q-0.375 0.421875 -0.46875 1.1875l2.875 0l0 -0.15625q-0.015625 -0.6875 -0.375 -1.0625q-0.359375 -0.390625 -1.015625 -0.390625zm11.562744 2.421875q0 1.78125 -0.8125 2.859375q-0.8125 1.078125 -2.1875 1.078125q-1.1875 0 -1.90625 -0.8125l0 3.65625l-2.0625153 0l0 -10.734375l1.9218903 0l0.0625 0.765625q0.75 -0.90625 1.96875 -0.90625q1.421875 0 2.21875 1.0625q0.796875 1.0625 0.796875 2.921875l0 0.109375zm-2.0625 -0.15625q0 -1.078125 -0.390625 -1.65625q-0.375 -0.59375 -1.109375 -0.59375q-0.96875 0 -1.34375 0.75l0 3.15625q0.375 0.765625 1.359375 0.765625q1.484375 0 1.484375 -2.421875zm5.5325317 3.953125l-2.078125 0l0 -7.75l2.078125 0l0 7.75zm-2.203125 -9.75q0 -0.46875 0.3125 -0.765625q0.3125 -0.296875 0.84375 -0.296875q0.53125 0 0.84375 0.296875q0.3125 0.296875 0.3125 0.765625q0 0.46875 -0.3125 0.78125q-0.3125 0.296875 -0.84375 0.296875q-0.515625 0 -0.84375 -0.296875q-0.3125 -0.3125 -0.3125 -0.78125zm7.1203003 8.21875q0.578125 0 0.921875 -0.3125q0.359375 -0.3125 0.375 -0.828125l1.9375 0q0 0.78125 -0.421875 1.4375q-0.421875 0.65625 -1.15625 1.015625q-0.734375 0.359375 -1.625 0.359375q-1.65625 0 -2.625 -1.046875q-0.953125 -1.0625 -0.953125 -2.921875l0 -0.140625q0 -1.78125 0.953125 -2.84375q0.953125 -1.078125 2.609375 -1.078125q1.453125 0 2.328125 0.828125q0.890625 0.828125 0.890625 2.203125l-1.9375 0q-0.015625 -0.59375 -0.375 -0.96875q-0.34375 -0.390625 -0.9375 -0.390625q-0.71875 0 -1.09375 0.53125q-0.359375 0.53125 -0.359375 1.703125l0 0.21875q0 1.203125 0.359375 1.71875q0.359375 0.515625 1.109375 0.515625zm5.0805054 2.421875l-1.546875 0l3.84375 -11.3125l1.53125 0l-3.828125 11.3125zm7.6308594 -4.0l-0.75 0.75l0 2.359375l-2.0625 0l0 -11.0l2.0625 0l0 6.09375l0.40625 -0.515625l1.984375 -2.328125l2.484375 0l-2.796875 3.234375l3.03125 4.515625l-2.375 0l-1.984375 -3.109375zm6.954071 -4.640625l0.0625 0.875q0.828125 -1.015625 2.234375 -1.015625q1.484375 0 2.046875 1.1875q0.8125 -1.1875 2.328125 -1.1875q1.25 0 1.859375 0.734375q0.625 0.734375 0.625 2.21875l0 4.9375l-2.078125 0l0 -4.9375q0 -0.65625 -0.265625 -0.953125q-0.25 -0.3125 -0.890625 -0.3125q-0.9375 0 -1.296875 0.890625l0.015625 5.3125l-2.078125 0l0 -4.9375q0 -0.671875 -0.265625 -0.96875q-0.265625 -0.296875 -0.890625 -0.296875q-0.890625 0 -1.28125 0.734375l0 5.46875l-2.0625 0l0 -7.75l1.9375 0zm15.235138 7.75q-0.140625 -0.28125 -0.203125 -0.6875q-0.75 0.828125 -1.953125 0.828125q-1.140625 0 -1.890625 -0.65625q-0.75 -0.65625 -0.75 -1.65625q0 -1.234375 0.90625 -1.890625q0.921875 -0.65625 2.640625 -0.671875l0.953125 0l0 -0.4375q0 -0.53125 -0.28125 -0.859375q-0.265625 -0.328125 -0.859375 -0.328125q-0.515625 0 -0.8125 0.25q-0.296875 0.25 -0.296875 0.6875l-2.078125 0q0 -0.671875 0.40625 -1.234375q0.421875 -0.578125 1.171875 -0.90625q0.765625 -0.328125 1.71875 -0.328125q1.421875 0 2.265625 0.71875q0.84375 0.71875 0.84375 2.03125l0 3.34375q0.015625 1.109375 0.3125 1.671875l0 0.125l-2.09375 0zm-1.703125 -1.4375q0.453125 0 0.828125 -0.203125q0.390625 -0.203125 0.578125 -0.546875l0 -1.328125l-0.765625 0q-1.5625 0 -1.65625 1.0625l0 0.125q0 0.390625 0.265625 0.640625q0.265625 0.25 0.75 0.25zm7.5451965 -8.203125l0 1.890625l1.328125 0l0 1.53125l-1.328125 0l0 3.859375q0 0.421875 0.15625 0.609375q0.171875 0.1875 0.640625 0.1875q0.34375 0 0.609375 -0.046875l0 1.5625q-0.609375 0.1875 -1.25 0.1875q-2.171875 0 -2.21875 -2.1875l0 -4.171875l-1.125 0l0 -1.53125l1.125 0l0 -1.890625l2.0625 0zm6.8272095 3.84375q-0.421875 -0.0625 -0.734375 -0.0625q-1.171875 0 -1.546875 0.796875l0 5.0625l-2.0625 0l0 -7.75l1.953125 0l0.0625 0.9375q0.609375 -1.078125 1.71875 -1.078125q0.34375 0 0.640625 0.09375l-0.03125 2.0zm3.1895447 5.796875l-2.078125 0l0 -7.75l2.078125 0l0 7.75zm-2.203125 -9.75q0 -0.46875 0.3125 -0.765625q0.3125 -0.296875 0.84375 -0.296875q0.53125 0 0.84375 0.296875q0.3125 0.296875 0.3125 0.765625q0 0.46875 -0.3125 0.78125q-0.3125 0.296875 -0.84375 0.296875q-0.515625 0 -0.84375 -0.296875q-0.3125 -0.3125 -0.3125 -0.78125zm6.8546753 4.3125l1.296875 -2.3125l2.203125 0l-2.203125 3.796875l2.296875 3.953125l-2.21875 0l-1.375 -2.4375l-1.375 2.4375l-2.21875 0l2.296875 -3.953125l-2.203125 -3.796875l2.21875 0l1.28125 2.3125z" fill-rule="nonzero"/><path fill="#000000" fill-opacity="0.0" d="m300.5958 14.893701l148.56693 0l0 21.952759l-148.56693 0z" fill-rule="evenodd"/><path fill="#4a86e8" d="m321.80875 31.090704q-1.703125 0 -2.78125 -1.046875q-1.0625 -1.046875 -1.0625 -2.78125l0 -0.203125q0 -1.15625 0.453125 -2.078125q0.453125 -0.921875 1.265625 -1.421875q0.828125 -0.5 1.890625 -0.5q1.59375 0 2.5 1.015625q0.921875 1.0 0.921875 2.828125l0 0.84375l-4.9375 0q0.109375 0.765625 0.609375 1.21875q0.5 0.453125 1.28125 0.453125q1.1875 0 1.859375 -0.859375l1.015625 1.140625q-0.46875 0.65625 -1.265625 1.03125q-0.78125 0.359375 -1.75 0.359375zm-0.234375 -6.359375q-0.625 0 -1.015625 0.421875q-0.375 0.421875 -0.46875 1.1875l2.875 0l0 -0.15625q-0.015625 -0.6875 -0.375 -1.0625q-0.359375 -0.390625 -1.015625 -0.390625zm11.562744 2.421875q0 1.78125 -0.8125 2.859375q-0.8125 1.078125 -2.1875 1.078125q-1.1875 0 -1.90625 -0.8125l0 3.656248l-2.0625 0l0 -10.734373l1.921875 0l0.0625 0.765625q0.75 -0.90625 1.96875 -0.90625q1.421875 0 2.21875 1.0625q0.796875 1.0625 0.796875 2.921875l0 0.109375zm-2.0625 -0.15625q0 -1.078125 -0.390625 -1.65625q-0.375 -0.59375 -1.109375 -0.59375q-0.96875 0 -1.34375 0.75l0 3.15625q0.375 0.765625 1.359375 0.765625q1.484375 0 1.484375 -2.421875zm5.5325317 3.953125l-2.078125 0l0 -7.75l2.078125 0l0 7.75zm-2.203125 -9.75q0 -0.46875 0.3125 -0.765625q0.3125 -0.296875 0.84375 -0.296875q0.53125 0 0.84375 0.296875q0.3125 0.296875 0.3125 0.765625q0 0.46875 -0.3125 0.78125q-0.3125 0.296875 -0.84375 0.296875q-0.515625 0 -0.84375 -0.296875q-0.3125 -0.3125 -0.3125 -0.78125zm7.1203003 8.21875q0.578125 0 0.921875 -0.3125q0.359375 -0.3125 0.375 -0.828125l1.9375 0q0 0.78125 -0.421875 1.4375q-0.421875 0.65625 -1.15625 1.015625q-0.734375 0.359375 -1.625 0.359375q-1.65625 0 -2.625 -1.046875q-0.953125 -1.0625 -0.953125 -2.921875l0 -0.140625q0 -1.78125 0.953125 -2.84375q0.953125 -1.078125 2.609375 -1.078125q1.453125 0 2.328125 0.828125q0.890625 0.828125 0.890625 2.203125l-1.9375 0q-0.015625 -0.59375 -0.375 -0.96875q-0.34375 -0.390625 -0.9375 -0.390625q-0.71875 0 -1.09375 0.53125q-0.359375 0.53125 -0.359375 1.703125l0 0.21875q0 1.203125 0.359375 1.71875q0.359375 0.515625 1.109375 0.515625zm5.0805054 2.421875l-1.546875 0l3.84375 -11.3125l1.53125 0l-3.828125 11.3125zm9.005859 -3.03125q0 -0.375 -0.375 -0.59375q-0.375 -0.21875 -1.203125 -0.390625q-2.765625 -0.578125 -2.765625 -2.34375q0 -1.03125 0.859375 -1.71875q0.859375 -0.703125 2.234375 -0.703125q1.46875 0 2.359375 0.703125q0.890625 0.6875 0.890625 1.796875l-2.078125 0q0 -0.4375 -0.28125 -0.71875q-0.28125 -0.296875 -0.890625 -0.296875q-0.53125 0 -0.8125 0.234375q-0.28125 0.234375 -0.28125 0.59375q0 0.34375 0.3125 0.5625q0.328125 0.203125 1.09375 0.359375q0.78125 0.15625 1.3125 0.34375q1.640625 0.609375 1.640625 2.09375q0 1.046875 -0.90625 1.703125q-0.90625 0.65625 -2.34375 0.65625q-0.984375 0 -1.734375 -0.34375q-0.75 -0.34375 -1.1875 -0.953125q-0.421875 -0.609375 -0.421875 -1.3125l1.953125 0q0.03125 0.5625 0.40625 0.859375q0.390625 0.28125 1.015625 0.28125q0.59375 0 0.890625 -0.21875q0.3125 -0.234375 0.3125 -0.59375zm10.316925 -1.65625q0 1.78125 -0.8125 2.859375q-0.8125 1.078125 -2.1875 1.078125q-1.1875 0 -1.90625 -0.8125l0 3.656248l-2.0625 0l0 -10.734373l1.921875 0l0.0625 0.765625q0.75 -0.90625 1.96875 -0.90625q1.421875 0 2.21875 1.0625q0.796875 1.0625 0.796875 2.921875l0 0.109375zm-2.0625 -0.15625q0 -1.078125 -0.390625 -1.65625q-0.375 -0.59375 -1.109375 -0.59375q-0.96875 0 -1.34375 0.75l0 3.15625q0.375 0.765625 1.359375 0.765625q1.484375 0 1.484375 -2.421875zm5.5325317 3.953125l-2.078125 0l0 -7.75l2.078125 0l0 7.75zm-2.203125 -9.75q0 -0.46875 0.3125 -0.765625q0.3125 -0.296875 0.84375 -0.296875q0.53125 0 0.84375 0.296875q0.3125 0.296875 0.3125 0.765625q0 0.46875 -0.3125 0.78125q-0.3125 0.296875 -0.84375 0.296875q-0.515625 0 -0.84375 -0.296875q-0.3125 -0.3125 -0.3125 -0.78125zm5.8078003 2.0l0.0625 0.90625q0.828125 -1.046875 2.21875 -1.046875q1.234375 0 1.828125 0.734375q0.609375 0.71875 0.625 2.15625l0 5.0l-2.0625 0l0 -4.953125q0 -0.65625 -0.296875 -0.953125q-0.28125 -0.296875 -0.953125 -0.296875q-0.875 0 -1.3125 0.75l0 5.453125l-2.0625 0l0 -7.75l1.953125 0zm10.3177185 4.125l-4.03125 0l0 -1.671875l4.03125 0l0 1.671875zm1.3384094 -0.296875q0 -1.8125 0.8125 -2.890625q0.8125 -1.078125 2.21875 -1.078125q1.140625 0 1.875 0.84375l0 -3.953125l2.078125 0l0 11.0l-1.875 0l-0.09375 -0.828125q-0.78125 0.96875 -1.984375 0.96875q-1.375 0 -2.203125 -1.078125q-0.828125 -1.078125 -0.828125 -2.984375zm2.078125 0.140625q0 1.09375 0.375 1.671875q0.375 0.578125 1.09375 0.578125q0.96875 0 1.359375 -0.8125l0 -3.046875q-0.390625 -0.8125 -1.34375 -0.8125q-1.484375 0 -1.484375 2.421875zm10.070953 3.921875q-1.703125 0 -2.78125 -1.046875q-1.0625 -1.046875 -1.0625 -2.78125l0 -0.203125q0 -1.15625 0.453125 -2.078125q0.453125 -0.921875 1.265625 -1.421875q0.828125 -0.5 1.890625 -0.5q1.59375 0 2.5 1.015625q0.921875 1.0 0.921875 2.828125l0 0.84375l-4.9375 0q0.109375 0.765625 0.609375 1.21875q0.5 0.453125 1.28125 0.453125q1.1875 0 1.859375 -0.859375l1.015625 1.140625q-0.46875 0.65625 -1.265625 1.03125q-0.78125 0.359375 -1.75 0.359375zm-0.234375 -6.359375q-0.625 0 -1.015625 0.421875q-0.375 0.421875 -0.46875 1.1875l2.875 0l0 -0.15625q-0.015625 -0.6875 -0.375 -1.0625q-0.359375 -0.390625 -1.015625 -0.390625zm6.500244 -1.53125l0.0625 0.90625q0.828125 -1.046875 2.21875 -1.046875q1.234375 0 1.828125 0.734375q0.609375 0.71875 0.625 2.15625l0 5.0l-2.0625 0l0 -4.953125q0 -0.65625 -0.296875 -0.953125q-0.28125 -0.296875 -0.953125 -0.296875q-0.875 0 -1.3125 0.75l0 5.453125l-2.0625 0l0 -7.75l1.953125 0zm10.4895935 5.609375q0 -0.375 -0.375 -0.59375q-0.375 -0.21875 -1.203125 -0.390625q-2.765625 -0.578125 -2.765625 -2.34375q0 -1.03125 0.859375 -1.71875q0.859375 -0.703125 2.234375 -0.703125q1.46875 0 2.359375 0.703125q0.890625 0.6875 0.890625 1.796875l-2.078125 0q0 -0.4375 -0.28125 -0.71875q-0.28125 -0.296875 -0.890625 -0.296875q-0.53125 0 -0.8125 0.234375q-0.28125 0.234375 -0.28125 0.59375q0 0.34375 0.3125 0.5625q0.328125 0.203125 1.09375 0.359375q0.78125 0.15625 1.3125 0.34375q1.640625 0.609375 1.640625 2.09375q0 1.046875 -0.90625 1.703125q-0.90625 0.65625 -2.34375 0.65625q-0.984375 0 -1.734375 -0.34375q-0.75 -0.34375 -1.1875 -0.953125q-0.421875 -0.609375 -0.421875 -1.3125l1.953125 0q0.03125 0.5625 0.40625 0.859375q0.390625 0.28125 1.015625 0.28125q0.59375 0 0.890625 -0.21875q0.3125 -0.234375 0.3125 -0.59375zm5.535675 2.140625l-2.078125 0l0 -7.75l2.078125 0l0 7.75zm-2.203125 -9.75q0 -0.46875 0.3125 -0.765625q0.3125 -0.296875 0.84375 -0.296875q0.53125 0 0.84375 0.296875q0.3125 0.296875 0.3125 0.765625q0 0.46875 -0.3125 0.78125q-0.3125 0.296875 -0.84375 0.296875q-0.515625 0 -0.84375 -0.296875q-0.3125 -0.3125 -0.3125 -0.78125zm6.37027 0.109375l0 1.890625l1.328125 0l0 1.53125l-1.328125 0l0 3.859375q0 0.421875 0.15625 0.609375q0.171875 0.1875 0.640625 0.1875q0.34375 0 0.609375 -0.046875l0 1.5625q-0.609375 0.1875 -1.25 0.1875q-2.171875 0 -2.21875 -2.1875l0 -4.171875l-1.125 0l0 -1.53125l1.125 0l0 -1.890625l2.0625 0zm5.3740845 6.71875l1.421875 -4.828125l2.21875 0l-3.109375 8.953123l-0.171875 0.40625q-0.6875 1.515625 -2.28125 1.515625q-0.453125 0 -0.921875 -0.140625l0 -1.5625l0.3125 0.015625q0.59375 0 0.875 -0.1875q0.296875 -0.171875 0.453125 -0.5937481l0.25 -0.640625l-2.71875 -7.765625l2.234375 0l1.4375 4.828125z" fill-rule="nonzero"/><path fill="#000000" fill-opacity="0.0" d="m0 78.88845l81.826775 0" fill-rule="evenodd"/><path stroke="#0f9d58" stroke-width="3.0" stroke-linejoin="round" stroke-linecap="butt" stroke-dasharray="3.0,9.0" d="m0 78.88845l81.826775 0" fill-rule="evenodd"/><path fill="#000000" fill-opacity="0.0" d="m36.643044 78.88845l45.79528 0" fill-rule="evenodd"/><path stroke="#0f9d58" stroke-width="3.0" stroke-linejoin="round" stroke-linecap="butt" stroke-dasharray="12.0,9.0" d="m36.643044 78.88845l45.79528 0" fill-rule="evenodd"/><path fill="#000000" fill-opacity="0.0" d="m148.33858 97.09055l0 -17.574806" fill-rule="evenodd"/><path stroke="#0f9d58" stroke-width="2.0" stroke-linejoin="round" stroke-linecap="butt" d="m148.33858 97.09055l0 -17.574806" fill-rule="evenodd"/><path fill="#000000" fill-opacity="0.0" d="m95.538055 97.09055l105.98425 0l0 33.85827l-105.98425 0z" fill-rule="evenodd"/><path fill="#d5a6bd" d="m115.10251 114.99156l-2.234375 0l0 3.828125l-1.25 0l0 -9.46875l3.140625 0q1.59375 0 2.453125 0.734375q0.875 0.71875 0.875 2.109375q0 0.890625 -0.484375 1.546875q-0.484375 0.65625 -1.328125 0.984375l2.21875 4.015625l0 0.078125l-1.34375 0l-2.046875 -3.828125zm-2.234375 -1.03125l1.921875 0q0.9375 0 1.484375 -0.46875q0.546875 -0.484375 0.546875 -1.296875q0 -0.875 -0.53125 -1.34375q-0.515625 -0.46875 -1.5 -0.484375l-1.921875 0l0 3.59375zm12.982483 -3.59375l-3.046875 0l0 8.453125l-1.234375 0l0 -8.453125l-3.046875 0l0 -1.015625l7.328125 0l0 1.015625zm1.4057465 8.453125l0 -9.46875l2.6875 0q1.234375 0 2.171875 0.546875q0.953125 0.546875 1.46875 1.5625q0.53125 1.0 0.53125 2.296875l0 0.609375q0 1.34375 -0.515625 2.359375q-0.515625 1.0 -1.484375 1.546875q-0.953125 0.53125 -2.234375 0.546875l-2.625 0zm1.25 -8.453125l0 7.4375l1.3125 0q1.453125 0 2.25 -0.890625q0.8125 -0.90625 0.8125 -2.578125l0 -0.546875q0 -1.609375 -0.765625 -2.5q-0.75 -0.90625 -2.140625 -0.921875l-1.46875 0zm7.333832 7.828125q0 -0.3125 0.1875 -0.515625q0.1875 -0.21875 0.546875 -0.21875q0.375 0 0.5625 0.21875q0.203125 0.203125 0.203125 0.515625q0 0.296875 -0.203125 0.5q-0.1875 0.203125 -0.5625 0.203125q-0.359375 0 -0.546875 -0.203125q-0.1875 -0.203125 -0.1875 -0.5zm0 -6.0q0 -0.3125 0.1875 -0.515625q0.1875 -0.21875 0.546875 -0.21875q0.375 0 0.5625 0.21875q0.203125 0.203125 0.203125 0.515625q0 0.296875 -0.203125 0.5q-0.1875 0.203125 -0.5625 0.203125q-0.359375 0 -0.546875 -0.203125q-0.1875 -0.203125 -0.1875 -0.5zm7.339905 -3.5l0.703125 0.46875q-0.609375 0.828125 -0.625 1.78125l0 0.890625l-1.203125 0l0 -0.75q0 -0.671875 0.3125 -1.3125q0.3125 -0.65625 0.8125 -1.078125zm2.0 0l0.703125 0.46875q-0.609375 0.828125 -0.625 1.78125l0 0.890625l-1.203125 0l0 -0.75q0 -0.671875 0.3125 -1.3125q0.3125 -0.65625 0.8125 -1.078125zm5.456497 8.25q0 -0.484375 -0.375 -0.75q-0.359375 -0.265625 -1.28125 -0.453125q-0.90625 -0.203125 -1.453125 -0.46875q-0.53125 -0.28125 -0.796875 -0.65625q-0.25 -0.390625 -0.25 -0.90625q0 -0.859375 0.734375 -1.453125q0.734375 -0.609375 1.875 -0.609375q1.1875 0 1.9375 0.625q0.75 0.609375 0.75 1.578125l-1.21875 0q0 -0.5 -0.421875 -0.859375q-0.421875 -0.359375 -1.046875 -0.359375q-0.65625 0 -1.03125 0.296875q-0.375 0.28125 -0.375 0.75q0 0.421875 0.34375 0.65625q0.34375 0.21875 1.25 0.421875q0.90625 0.203125 1.453125 0.484375q0.5625 0.265625 0.828125 0.671875q0.28125 0.390625 0.28125 0.953125q0 0.9375 -0.765625 1.515625q-0.75 0.5625 -1.953125 0.5625q-0.84375 0 -1.5 -0.296875q-0.640625 -0.296875 -1.015625 -0.828125q-0.359375 -0.546875 -0.359375 -1.171875l1.203125 0q0.03125 0.609375 0.484375 0.96875q0.453125 0.34375 1.1875 0.34375q0.6875 0 1.09375 -0.265625q0.421875 -0.28125 0.421875 -0.75zm4.4035645 -6.875l0 1.703125l1.3125 0l0 0.9375l-1.3125 0l0 4.359375q0 0.421875 0.171875 0.640625q0.171875 0.21875 0.59375 0.21875q0.21875 0 0.578125 -0.078125l0 0.96875q-0.46875 0.125 -0.921875 0.125q-0.8125 0 -1.21875 -0.484375q-0.40625 -0.484375 -0.40625 -1.390625l0 -4.359375l-1.28125 0l0 -0.9375l1.28125 0l0 -1.703125l1.203125 0zm7.072525 8.75q-0.109375 -0.203125 -0.171875 -0.734375q-0.84375 0.859375 -2.015625 0.859375q-1.03125 0 -1.703125 -0.578125q-0.671875 -0.59375 -0.671875 -1.5q0 -1.09375 0.828125 -1.703125q0.84375 -0.609375 2.359375 -0.609375l1.171875 0l0 -0.5625q0 -0.625 -0.375 -1.0q-0.375 -0.375 -1.109375 -0.375q-0.640625 0 -1.078125 0.328125q-0.4375 0.328125 -0.4375 0.78125l-1.203125 0q0 -0.515625 0.359375 -1.0q0.375 -0.5 1.015625 -0.78125q0.65625 -0.296875 1.421875 -0.296875q1.21875 0 1.90625 0.609375q0.6875 0.609375 0.71875 1.671875l0 3.25q0 0.96875 0.234375 1.53125l0 0.109375l-1.25 0zm-2.0 -0.921875q0.5625 0 1.0625 -0.28125q0.515625 -0.296875 0.734375 -0.765625l0 -1.453125l-0.9375 0q-2.21875 0 -2.21875 1.296875q0 0.5625 0.375 0.890625q0.390625 0.3125 0.984375 0.3125zm10.859146 -2.515625q0 1.609375 -0.75 2.59375q-0.734375 0.96875 -1.984375 0.96875q-1.328125 0 -2.0625 -0.9375l-0.0625 0.8125l-1.109375 0l0 -10.0l1.203125 0l0 3.734375q0.734375 -0.90625 2.015625 -0.90625q1.28125 0 2.015625 0.96875q0.734375 0.96875 0.734375 2.65625l0 0.109375zm-1.203125 -0.140625q0 -1.234375 -0.484375 -1.90625q-0.46875 -0.671875 -1.359375 -0.671875q-1.1875 0 -1.71875 1.109375l0 3.046875q0.5625 1.109375 1.734375 1.109375q0.859375 0 1.34375 -0.671875q0.484375 -0.671875 0.484375 -2.015625zm4.0244293 3.578125l-1.203125 0l0 -10.0l1.203125 0l0 10.0zm4.843796 0.125q-1.421875 0 -2.328125 -0.9375q-0.890625 -0.9375 -0.890625 -2.515625l0 -0.21875q0 -1.046875 0.390625 -1.859375q0.40625 -0.828125 1.125 -1.296875q0.71875 -0.46875 1.5625 -0.46875q1.375 0 2.125 0.90625q0.765625 0.90625 0.765625 2.59375l0 0.5l-4.765625 0q0.015625 1.03125 0.59375 1.671875q0.59375 0.640625 1.484375 0.640625q0.640625 0 1.078125 -0.25q0.453125 -0.265625 0.78125 -0.6875l0.734375 0.5625q-0.875 1.359375 -2.65625 1.359375zm-0.140625 -6.3125q-0.734375 0 -1.234375 0.53125q-0.484375 0.53125 -0.609375 1.484375l3.53125 0l0 -0.078125q-0.046875 -0.921875 -0.5 -1.421875q-0.4375 -0.515625 -1.1875 -0.515625zm4.2824097 -0.625l-0.6875 -0.46875q0.609375 -0.84375 0.625 -1.78125l0 -0.9375l1.1875 0l0 0.84375q0 0.65625 -0.328125 1.3125q-0.3125 0.640625 -0.796875 1.03125zm2.0 0l-0.6875 -0.46875q0.609375 -0.84375 0.625 -1.78125l0 -0.9375l1.1875 0l0 0.84375q0 0.65625 -0.328125 1.3125q-0.3125 0.640625 -0.796875 1.03125z" fill-rule="nonzero"/><path fill="#000000" fill-opacity="0.0" d="m244.36482 16.783464c9.425201 0 14.137802 6.9291344 18.850388 13.858269c4.712616 6.9291325 9.425201 13.858267 18.850403 13.858267" fill-rule="evenodd"/><path stroke="#999999" stroke-width="2.0" stroke-linejoin="round" stroke-linecap="butt" stroke-dasharray="2.0,6.0" d="m244.36482 16.783464c9.425201 0 14.137802 6.9291344 18.850388 13.858269c2.3563232 3.4645672 4.712616 6.9291325 7.6579895 9.527559c0.7363281 0.6496048 1.5095215 1.245079 2.3286743 1.7728844c0.40960693 0.26390076 0.8306885 0.51088715 1.2644653 0.73926544c0.21685791 0.11418533 0.43688965 0.22372437 0.6602478 0.32839584l0.22668457 0.10298538" fill-rule="evenodd"/><path fill="#999999" stroke="#999999" stroke-width="2.0" stroke-linecap="butt" d="m275.35327 43.112827l-2.6578064 1.7474289l6.5068665 -0.9519882l-5.596466 -3.4532585z" fill-rule="evenodd"/><path fill="#000000" fill-opacity="0.0" d="m144.77428 0.16929133l99.590546 0l0 33.228344l-99.590546 0z" fill-rule="evenodd"/><path fill="#999999" d="m170.2297 10.959714l0 3.34375l-1.125 0l0 -8.53125l3.15625 0q1.390625 0 2.1875 0.71875q0.796875 0.703125 0.796875 1.890625q0 1.234375 -0.78125 1.90625q-0.765625 0.671875 -2.21875 0.671875l-2.015625 0zm0 -0.921875l2.03125 0q0.90625 0 1.375 -0.421875q0.484375 -0.421875 0.484375 -1.21875q0 -0.765625 -0.484375 -1.21875q-0.46875 -0.46875 -1.3125 -0.484375l-2.09375 0l0 3.34375zm9.5859375 0.8125l-2.015625 0l0 3.453125l-1.125 0l0 -8.53125l2.828125 0q1.4375 0 2.203125 0.65625q0.78125 0.65625 0.78125 1.90625q0 0.796875 -0.4375 1.390625q-0.421875 0.59375 -1.1875 0.890625l2.0 3.609375l0 0.078125l-1.203125 0l-1.84375 -3.453125zm-2.015625 -0.921875l1.734375 0q0.84375 0 1.328125 -0.421875q0.5 -0.4375 0.5 -1.171875q0 -0.78125 -0.46875 -1.203125q-0.46875 -0.421875 -1.359375 -0.4375l-1.734375 0l0 3.234375zm9.609375 4.375l0 -5.5l-1.0 0l0 -0.84375l1.0 0l0 -0.640625q0 -1.03125 0.53125 -1.578125q0.546875 -0.5625 1.546875 -0.5625q0.375 0 0.75 0.09375l-0.0625 0.890625q-0.28125 -0.0625 -0.578125 -0.0625q-0.53125 0 -0.828125 0.3125q-0.28125 0.3125 -0.28125 0.875l0 0.671875l1.359375 0l0 0.84375l-1.359375 0l0 5.5l-1.078125 0zm6.6972656 -5.375q-0.25 -0.03125 -0.53125 -0.03125q-1.078125 0 -1.453125 0.90625l0 4.5l-1.078125 0l0 -6.34375l1.046875 0l0.015625 0.734375q0.53125 -0.84375 1.515625 -0.84375q0.3125 0 0.484375 0.078125l0 1.0zm0.5839844 2.140625q0 -0.921875 0.359375 -1.671875q0.375 -0.75 1.03125 -1.140625q0.65625 -0.40625 1.484375 -0.40625q1.296875 0 2.09375 0.890625q0.8125 0.890625 0.8125 2.390625l0 0.078125q0 0.921875 -0.359375 1.65625q-0.359375 0.734375 -1.015625 1.15625q-0.65625 0.40625 -1.515625 0.40625q-1.28125 0 -2.09375 -0.890625q-0.796875 -0.90625 -0.796875 -2.390625l0 -0.078125zm1.09375 0.140625q0 1.046875 0.484375 1.6875q0.5 0.640625 1.3125 0.640625q0.828125 0 1.3125 -0.640625q0.484375 -0.65625 0.484375 -1.828125q0 -1.03125 -0.5 -1.671875q-0.484375 -0.65625 -1.3125 -0.65625q-0.796875 0 -1.296875 0.640625q-0.484375 0.625 -0.484375 1.828125zm7.0625 -3.25l0.03125 0.703125q0.6875 -0.8125 1.875 -0.8125q1.328125 0 1.8125 1.015625q0.3125 -0.453125 0.8125 -0.734375q0.515625 -0.28125 1.203125 -0.28125q2.09375 0 2.125 2.203125l0 4.25l-1.078125 0l0 -4.1875q0 -0.671875 -0.3125 -1.0q-0.3125 -0.34375 -1.046875 -0.34375q-0.609375 0 -1.015625 0.359375q-0.390625 0.359375 -0.453125 0.96875l0 4.203125l-1.078125 0l0 -4.15625q0 -1.375 -1.359375 -1.375q-1.0625 0 -1.453125 0.90625l0 4.625l-1.09375 0l0 -6.34375l1.03125 0zm16.378906 6.34375q-0.09375 -0.1875 -0.15625 -0.671875q-0.75 0.796875 -1.796875 0.796875q-0.9375 0 -1.546875 -0.53125q-0.59375 -0.53125 -0.59375 -1.359375q0 -0.984375 0.75 -1.53125q0.75 -0.546875 2.125 -0.546875l1.046875 0l0 -0.5q0 -0.5625 -0.34375 -0.890625q-0.328125 -0.34375 -1.0 -0.34375q-0.578125 0 -0.96875 0.296875q-0.390625 0.28125 -0.390625 0.703125l-1.09375 0q0 -0.484375 0.328125 -0.921875q0.34375 -0.4375 0.921875 -0.6875q0.578125 -0.265625 1.265625 -0.265625q1.109375 0 1.71875 0.546875q0.625 0.546875 0.65625 1.5l0 2.921875q0 0.875 0.21875 1.390625l0 0.09375l-1.140625 0zm-1.796875 -0.828125q0.515625 0 0.96875 -0.265625q0.453125 -0.265625 0.65625 -0.6875l0 -1.296875l-0.84375 0q-2.0 0 -2.0 1.171875q0 0.5 0.34375 0.796875q0.34375 0.28125 0.875 0.28125z" fill-rule="nonzero"/><path fill="#999999" d="m156.34201 28.303465l0 -5.09375l-0.9375 0l0 -1.25l0.9375 0l0 -0.53125q0 -1.078125 0.609375 -1.65625q0.625 -0.59375 1.71875 -0.59375q0.359375 0 0.859375 0.125l-0.015625 1.3125q-0.203125 -0.0625 -0.515625 -0.0625q-0.953125 0 -0.953125 0.90625l0 0.5l1.265625 0l0 1.25l-1.265625 0l0 5.09375l-1.703125 0zm6.6132812 0.125q-1.390625 0 -2.265625 -0.859375q-0.875 -0.859375 -0.875 -2.28125l0 -0.171875q0 -0.953125 0.359375 -1.703125q0.375 -0.75 1.046875 -1.15625q0.6875 -0.40625 1.546875 -0.40625q1.3125 0 2.046875 0.828125q0.75 0.8125 0.75 2.3125l0 0.6875l-4.03125 0q0.078125 0.625 0.484375 1.0q0.421875 0.375 1.0625 0.375q0.96875 0 1.515625 -0.703125l0.84375 0.921875q-0.390625 0.546875 -1.046875 0.859375q-0.640625 0.296875 -1.4375 0.296875zm-0.1875 -5.21875q-0.5 0 -0.8125 0.34375q-0.3125 0.34375 -0.40625 0.96875l2.359375 0l0 -0.125q-0.015625 -0.5625 -0.3125 -0.875q-0.28125 -0.3125 -0.828125 -0.3125zm7.439453 5.09375q-0.125 -0.234375 -0.171875 -0.5625q-0.609375 0.6875 -1.59375 0.6875q-0.9375 0 -1.546875 -0.546875q-0.609375 -0.546875 -0.609375 -1.359375q0 -1.015625 0.734375 -1.546875q0.75 -0.546875 2.171875 -0.546875l0.765625 0l0 -0.359375q0 -0.4375 -0.21875 -0.703125q-0.21875 -0.265625 -0.71875 -0.265625q-0.421875 0 -0.671875 0.203125q-0.234375 0.203125 -0.234375 0.5625l-1.6875 0q0 -0.546875 0.328125 -1.015625q0.34375 -0.46875 0.96875 -0.734375q0.625 -0.265625 1.390625 -0.265625q1.171875 0 1.859375 0.59375q0.6875 0.578125 0.6875 1.640625l0 2.75q0.015625 0.90625 0.25 1.375l0 0.09375l-1.703125 0zm-1.40625 -1.171875q0.375 0 0.6875 -0.171875q0.328125 -0.171875 0.46875 -0.453125l0 -1.09375l-0.625 0q-1.265625 0 -1.359375 0.890625l0 0.09375q0 0.3125 0.21875 0.53125q0.21875 0.203125 0.609375 0.203125zm6.1835938 -6.734375l0 1.5625l1.09375 0l0 1.25l-1.09375 0l0 3.15625q0 0.359375 0.140625 0.515625q0.140625 0.140625 0.515625 0.140625q0.28125 0 0.5 -0.03125l0 1.28125q-0.5 0.15625 -1.03125 0.15625q-1.78125 0 -1.8125 -1.8125l0 -3.40625l-0.921875 0l0 -1.25l0.921875 0l0 -1.5625l1.6875 0zm5.8359375 7.265625q-0.625 0.765625 -1.734375 0.765625q-1.03125 0 -1.5625 -0.59375q-0.53125 -0.59375 -0.546875 -1.71875l0 -4.15625l1.6875 0l0 4.09375q0 1.0 0.90625 1.0q0.859375 0 1.1875 -0.609375l0 -4.484375l1.703125 0l0 6.34375l-1.59375 0l-0.046875 -0.640625zm6.4804688 -4.109375q-0.34375 -0.046875 -0.609375 -0.046875q-0.96875 0 -1.265625 0.640625l0 4.15625l-1.6875 0l0 -6.34375l1.59375 0l0.046875 0.765625q0.515625 -0.875 1.40625 -0.875q0.28125 0 0.53125 0.078125l-0.015625 1.625zm3.609375 4.875q-1.390625 0 -2.265625 -0.859375q-0.875 -0.859375 -0.875 -2.28125l0 -0.171875q0 -0.953125 0.359375 -1.703125q0.375 -0.75 1.046875 -1.15625q0.6875 -0.40625 1.546875 -0.40625q1.3125 0 2.046875 0.828125q0.75 0.8125 0.75 2.3125l0 0.6875l-4.03125 0q0.078125 0.625 0.484375 1.0q0.421875 0.375 1.0625 0.375q0.96875 0 1.515625 -0.703125l0.84375 0.921875q-0.390625 0.546875 -1.046875 0.859375q-0.640625 0.296875 -1.4375 0.296875zm-0.1875 -5.21875q-0.5 0 -0.8125 0.34375q-0.3125 0.34375 -0.40625 0.96875l2.359375 0l0 -0.125q-0.015625 -0.5625 -0.3125 -0.875q-0.28125 -0.3125 -0.828125 -0.3125zm12.458984 1.984375q0 1.515625 -0.65625 2.375q-0.640625 0.859375 -1.8125 0.859375q-1.03125 0 -1.640625 -0.796875l-0.078125 0.671875l-1.515625 0l0 -9.0l1.6875 0l0 3.234375q0.59375 -0.6875 1.546875 -0.6875q1.15625 0 1.8125 0.859375q0.65625 0.84375 0.65625 2.390625l0 0.09375zm-1.6875 -0.125q0 -0.96875 -0.3125 -1.40625q-0.296875 -0.4375 -0.90625 -0.4375q-0.796875 0 -1.109375 0.65625l0 2.5q0.3125 0.671875 1.125 0.671875q0.828125 0 1.078125 -0.8125q0.125 -0.375 0.125 -1.171875zm6.3027344 -1.515625q-0.34375 -0.046875 -0.609375 -0.046875q-0.96875 0 -1.265625 0.640625l0 4.15625l-1.6875 0l0 -6.34375l1.59375 0l0.046875 0.765625q0.515625 -0.875 1.40625 -0.875q0.28125 0 0.53125 0.078125l-0.015625 1.625zm4.310547 4.75q-0.125 -0.234375 -0.171875 -0.5625q-0.609375 0.6875 -1.59375 0.6875q-0.9375 0 -1.546875 -0.546875q-0.609375 -0.546875 -0.609375 -1.359375q0 -1.015625 0.734375 -1.546875q0.75 -0.546875 2.171875 -0.546875l0.765625 0l0 -0.359375q0 -0.4375 -0.21875 -0.703125q-0.21875 -0.265625 -0.71875 -0.265625q-0.421875 0 -0.671875 0.203125q-0.234375 0.203125 -0.234375 0.5625l-1.6875 0q0 -0.546875 0.328125 -1.015625q0.34375 -0.46875 0.96875 -0.734375q0.625 -0.265625 1.390625 -0.265625q1.171875 0 1.859375 0.59375q0.6875 0.578125 0.6875 1.640625l0 2.75q0.015625 0.90625 0.25 1.375l0 0.09375l-1.703125 0zm-1.40625 -1.171875q0.375 0 0.6875 -0.171875q0.328125 -0.171875 0.46875 -0.453125l0 -1.09375l-0.625 0q-1.265625 0 -1.359375 0.890625l0 0.09375q0 0.3125 0.21875 0.53125q0.21875 0.203125 0.609375 0.203125zm5.7148438 -5.171875l0.0625 0.734375q0.671875 -0.84375 1.8125 -0.84375q1.015625 0 1.5 0.59375q0.5 0.578125 0.515625 1.765625l0 4.09375l-1.703125 0l0 -4.0625q0 -0.53125 -0.234375 -0.765625q-0.234375 -0.25 -0.78125 -0.25q-0.703125 0 -1.0625 0.609375l0 4.46875l-1.703125 0l0 -6.34375l1.59375 0zm7.798828 5.09375q0.46875 0 0.765625 -0.25q0.296875 -0.265625 0.3125 -0.6875l1.578125 0q0 0.640625 -0.34375 1.1875q-0.34375 0.53125 -0.953125 0.828125q-0.59375 0.296875 -1.328125 0.296875q-1.359375 0 -2.140625 -0.859375q-0.78125 -0.875 -0.78125 -2.40625l0 -0.109375q0 -1.46875 0.78125 -2.328125q0.78125 -0.875 2.140625 -0.875q1.1875 0 1.90625 0.671875q0.71875 0.671875 0.71875 1.796875l-1.578125 0q-0.015625 -0.484375 -0.3125 -0.796875q-0.296875 -0.3125 -0.765625 -0.3125q-0.59375 0 -0.90625 0.4375q-0.296875 0.4375 -0.296875 1.390625l0 0.1875q0 0.96875 0.296875 1.40625q0.296875 0.421875 0.90625 0.421875zm5.2734375 -4.40625q0.6875 -0.796875 1.703125 -0.796875q2.0625 0 2.09375 2.390625l0 4.0625l-1.703125 0l0 -4.015625q0 -0.546875 -0.234375 -0.796875q-0.234375 -0.265625 -0.78125 -0.265625q-0.734375 0 -1.078125 0.578125l0 4.5l-1.6875 0l0 -9.0l1.6875 0l0 3.34375z" fill-rule="nonzero"/><path fill="#000000" fill-opacity="0.0" d="m189.45932 140.15617l37.889755 0l0 21.952744l-37.889755 0z" fill-rule="evenodd"/><path fill="#999999" d="m203.03409 152.30879l0 3.34375l-1.125 0l0 -8.53125l3.15625 0q1.390625 0 2.1875 0.71875q0.796875 0.703125 0.796875 1.890625q0 1.234375 -0.78125 1.90625q-0.765625 0.671875 -2.21875 0.671875l-2.015625 0zm0 -0.921875l2.03125 0q0.90625 0 1.375 -0.421875q0.484375 -0.421875 0.484375 -1.21875q0 -0.765625 -0.484375 -1.21875q-0.46875 -0.46875 -1.3125 -0.484375l-2.09375 0l0 3.34375zm9.5859375 0.8125l-2.015625 0l0 3.453125l-1.125 0l0 -8.53125l2.828125 0q1.4375 0 2.203125 0.65625q0.78125 0.65625 0.78125 1.90625q0 0.796875 -0.4375 1.390625q-0.421875 0.59375 -1.1875 0.890625l2.0 3.609375l0 0.078125l-1.203125 0l-1.84375 -3.453125zm-2.015625 -0.921875l1.734375 0q0.84375 0 1.328125 -0.421875q0.5 -0.4375 0.5 -1.171875q0 -0.78125 -0.46875 -1.203125q-0.46875 -0.421875 -1.359375 -0.4375l-1.734375 0l0 3.234375z" fill-rule="nonzero"/><path fill="#000000" fill-opacity="0.0" d="m405.73752 97.51312l95.33859 0l0 33.85826l-95.33859 0z" fill-rule="evenodd"/><path fill="#d5a6bd" d="m421.23505 115.41413l-2.234375 0l0 3.828125l-1.25 0l0 -9.46875l3.140625 0q1.59375 0 2.453125 0.734375q0.875 0.71875 0.875 2.109375q0 0.890625 -0.484375 1.546875q-0.484375 0.65625 -1.328125 0.984375l2.21875 4.015625l0 0.078125l-1.34375 0l-2.046875 -3.828125zm-2.234375 -1.03125l1.921875 0q0.9375 0 1.484375 -0.46875q0.546875 -0.484375 0.546875 -1.296875q0 -0.875 -0.53125 -1.34375q-0.515625 -0.46875 -1.5 -0.484375l-1.921875 0l0 3.59375zm12.982483 -3.59375l-3.046875 0l0 8.453125l-1.234375 0l0 -8.453125l-3.046875 0l0 -1.015625l7.328125 0l0 1.015625zm1.4057617 8.453125l0 -9.46875l2.6875 0q1.234375 0 2.171875 0.546875q0.953125 0.546875 1.46875 1.5625q0.53125 1.0 0.53125 2.296875l0 0.609375q0 1.34375 -0.515625 2.359375q-0.515625 1.0 -1.484375 1.546875q-0.953125 0.53125 -2.234375 0.546875l-2.625 0zm1.25 -8.453125l0 7.4375l1.3125 0q1.453125 0 2.25 -0.890625q0.8125 -0.90625 0.8125 -2.578125l0 -0.546875q0 -1.609375 -0.765625 -2.5q-0.75 -0.90625 -2.140625 -0.921875l-1.46875 0zm7.333832 7.828125q0 -0.3125 0.1875 -0.515625q0.1875 -0.21875 0.546875 -0.21875q0.375 0 0.5625 0.21875q0.203125 0.203125 0.203125 0.515625q0 0.296875 -0.203125 0.5q-0.1875 0.203125 -0.5625 0.203125q-0.359375 0 -0.546875 -0.203125q-0.1875 -0.203125 -0.1875 -0.5zm0 -6.0q0 -0.3125 0.1875 -0.515625q0.1875 -0.21875 0.546875 -0.21875q0.375 0 0.5625 0.21875q0.203125 0.203125 0.203125 0.515625q0 0.296875 -0.203125 0.5q-0.1875 0.203125 -0.5625 0.203125q-0.359375 0 -0.546875 -0.203125q-0.1875 -0.203125 -0.1875 -0.5zm7.339905 -3.5l0.703125 0.46875q-0.609375 0.828125 -0.625 1.78125l0 0.890625l-1.203125 0l0 -0.75q0 -0.671875 0.3125 -1.3125q0.3125 -0.65625 0.8125 -1.078125zm2.0 0l0.703125 0.46875q-0.609375 0.828125 -0.625 1.78125l0 0.890625l-1.203125 0l0 -0.75q0 -0.671875 0.3125 -1.3125q0.3125 -0.65625 0.8125 -1.078125zm3.1804504 10.125l-1.203125 0l0 -10.0l1.203125 0l0 10.0zm6.2812805 0q-0.109375 -0.203125 -0.171875 -0.734375q-0.84375 0.859375 -2.015625 0.859375q-1.03125 0 -1.703125 -0.578125q-0.671875 -0.59375 -0.671875 -1.5q0 -1.09375 0.828125 -1.703125q0.84375 -0.609375 2.359375 -0.609375l1.171875 0l0 -0.5625q0 -0.625 -0.375 -1.0q-0.375 -0.375 -1.109375 -0.375q-0.640625 0 -1.078125 0.328125q-0.4375 0.328125 -0.4375 0.78125l-1.203125 0q0 -0.515625 0.359375 -1.0q0.375 -0.5 1.015625 -0.78125q0.65625 -0.296875 1.421875 -0.296875q1.21875 0 1.90625 0.609375q0.6875 0.609375 0.71875 1.671875l0 3.25q0 0.96875 0.234375 1.53125l0 0.109375l-1.25 0zm-2.0 -0.921875q0.5625 0 1.0625 -0.28125q0.515625 -0.296875 0.734375 -0.765625l0 -1.453125l-0.9375 0q-2.21875 0 -2.21875 1.296875q0 0.5625 0.375 0.890625q0.390625 0.3125 0.984375 0.3125zm6.5310364 -7.828125l0 1.703125l1.3125 0l0 0.9375l-1.3125 0l0 4.359375q0 0.421875 0.171875 0.640625q0.171875 0.21875 0.59375 0.21875q0.21875 0 0.578125 -0.078125l0 0.96875q-0.46875 0.125 -0.921875 0.125q-0.8125 0 -1.21875 -0.484375q-0.40625 -0.484375 -0.40625 -1.390625l0 -4.359375l-1.28125 0l0 -0.9375l1.28125 0l0 -1.703125l1.203125 0zm5.63501 8.875q-1.421875 0 -2.328125 -0.9375q-0.890625 -0.9375 -0.890625 -2.515625l0 -0.21875q0 -1.046875 0.390625 -1.859375q0.40625 -0.828125 1.125 -1.296875q0.71875 -0.46875 1.5625 -0.46875q1.375 0 2.125 0.90625q0.765625 0.90625 0.765625 2.59375l0 0.5l-4.765625 0q0.015625 1.03125 0.59375 1.671875q0.59375 0.640625 1.484375 0.640625q0.640625 0 1.078125 -0.25q0.453125 -0.265625 0.78125 -0.6875l0.734375 0.5625q-0.875 1.359375 -2.65625 1.359375zm-0.140625 -6.3125q-0.734375 0 -1.234375 0.53125q-0.484375 0.53125 -0.609375 1.484375l3.53125 0l0 -0.078125q-0.046875 -0.921875 -0.5 -1.421875q-0.4375 -0.515625 -1.1875 -0.515625zm8.389191 4.3125q0 -0.484375 -0.375 -0.75q-0.359375 -0.265625 -1.28125 -0.453125q-0.90625 -0.203125 -1.453125 -0.46875q-0.53125 -0.28125 -0.796875 -0.65625q-0.25 -0.390625 -0.25 -0.90625q0 -0.859375 0.734375 -1.453125q0.734375 -0.609375 1.875 -0.609375q1.1875 0 1.9375 0.625q0.75 0.609375 0.75 1.578125l-1.21875 0q0 -0.5 -0.421875 -0.859375q-0.421875 -0.359375 -1.046875 -0.359375q-0.65625 0 -1.03125 0.296875q-0.375 0.28125 -0.375 0.75q0 0.421875 0.34375 0.65625q0.34375 0.21875 1.25 0.421875q0.90625 0.203125 1.453125 0.484375q0.5625 0.265625 0.828125 0.671875q0.28125 0.390625 0.28125 0.953125q0 0.9375 -0.765625 1.515625q-0.75 0.5625 -1.953125 0.5625q-0.84375 0 -1.5 -0.296875q-0.640625 -0.296875 -1.015625 -0.828125q-0.359375 -0.546875 -0.359375 -1.171875l1.203125 0q0.03125 0.609375 0.484375 0.96875q0.453125 0.34375 1.1875 0.34375q0.6875 0 1.09375 -0.265625q0.421875 -0.28125 0.421875 -0.75zm4.4035645 -6.875l0 1.703125l1.3125 0l0 0.9375l-1.3125 0l0 4.359375q0 0.421875 0.171875 0.640625q0.171875 0.21875 0.59375 0.21875q0.21875 0 0.578125 -0.078125l0 0.96875q-0.46875 0.125 -0.921875 0.125q-0.8125 0 -1.21875 -0.484375q-0.40625 -0.484375 -0.40625 -1.390625l0 -4.359375l-1.28125 0l0 -0.9375l1.28125 0l0 -1.703125l1.203125 0zm2.8068848 1.9375l-0.6875 -0.46875q0.609375 -0.84375 0.625 -1.78125l0 -0.9375l1.1875 0l0 0.84375q0 0.65625 -0.328125 1.3125q-0.3125 0.640625 -0.796875 1.03125zm2.0 0l-0.6875 -0.46875q0.609375 -0.84375 0.625 -1.78125l0 -0.9375l1.1875 0l0 0.84375q0 0.65625 -0.328125 1.3125q-0.3125 0.640625 -0.796875 1.03125z" fill-rule="nonzero"/><path fill="#000000" fill-opacity="0.0" d="m387.96326 136.30577l37.88977 0l0 21.952759l-37.88977 0z" fill-rule="evenodd"/><path fill="#999999" d="m401.53802 148.4584l0 3.34375l-1.125 0l0 -8.53125l3.15625 0q1.390625 0 2.1875 0.71875q0.796875 0.703125 0.796875 1.890625q0 1.234375 -0.78125 1.90625q-0.765625 0.671875 -2.21875 0.671875l-2.015625 0zm0 -0.921875l2.03125 0q0.90625 0 1.375 -0.421875q0.484375 -0.421875 0.484375 -1.21875q0 -0.765625 -0.484375 -1.21875q-0.46875 -0.46875 -1.3125 -0.484375l-2.09375 0l0 3.34375zm9.5859375 0.8125l-2.015625 0l0 3.453125l-1.125 0l0 -8.53125l2.828125 0q1.4375 0 2.203125 0.65625q0.78125 0.65625 0.78125 1.90625q0 0.796875 -0.4375 1.390625q-0.421875 0.59375 -1.1875 0.890625l2.0 3.609375l0 0.078125l-1.203125 0l-1.84375 -3.453125zm-2.015625 -0.921875l1.734375 0q0.84375 0 1.328125 -0.421875q0.5 -0.4375 0.5 -1.171875q0 -0.78125 -0.46875 -1.203125q-0.46875 -0.421875 -1.359375 -0.4375l-1.734375 0l0 3.234375z" fill-rule="nonzero"/><path fill="#000000" fill-opacity="0.0" d="m306.76248 41.84777l37.88974 0l0 21.952755l-37.88974 0z" fill-rule="evenodd"/><path fill="#999999" d="m320.33722 54.000397l0 3.34375l-1.125 0l0 -8.53125l3.15625 0q1.390625 0 2.1875 0.71875q0.796875 0.703125 0.796875 1.890625q0 1.234375 -0.78125 1.90625q-0.765625 0.671875 -2.21875 0.671875l-2.015625 0zm0 -0.921875l2.03125 0q0.90625 0 1.375 -0.421875q0.484375 -0.421875 0.484375 -1.21875q0 -0.765625 -0.484375 -1.21875q-0.46875 -0.46875 -1.3125 -0.484375l-2.09375 0l0 3.34375zm9.5859375 0.8125l-2.015625 0l0 3.453125l-1.125 0l0 -8.53125l2.828125 0q1.4375 0 2.203125 0.65625q0.78125 0.65625 0.78125 1.90625q0 0.796875 -0.4375 1.390625q-0.421875 0.59375 -1.1875 0.890625l2.0 3.609375l0 0.078125l-1.203125 0l-1.84375 -3.453125zm-2.015625 -0.921875l1.734375 0q0.84375 0 1.328125 -0.421875q0.5 -0.4375 0.5 -1.171875q0 -0.78125 -0.46875 -1.203125q-0.46875 -0.421875 -1.359375 -0.4375l-1.734375 0l0 3.234375z" fill-rule="nonzero"/><path fill="#000000" fill-opacity="0.0" d="m306.76248 52.824146c-11.574829 0 -23.149628 12.393703 -23.149628 24.787403" fill-rule="evenodd"/><path stroke="#999999" stroke-width="2.0" stroke-linejoin="round" stroke-linecap="butt" stroke-dasharray="2.0,6.0" d="m306.76248 52.824146c-5.7874146 0 -11.574829 3.0984268 -15.915375 7.746063c-2.1702576 2.3238182 -3.9788208 5.034939 -5.244812 7.9397163c-0.31652832 0.72618866 -0.5990906 1.4644852 -0.8449402 2.2118607l-0.03955078 0.12523651" fill-rule="evenodd"/><path fill="#999999" stroke="#999999" stroke-width="2.0" stroke-linecap="butt" d="m284.7178 70.84702l-1.8571472 -2.5823288l1.2235413 6.4612885l3.2159424 -5.736122z" fill-rule="evenodd"/><path fill="#000000" fill-opacity="0.0" d="m291.67715 84.132545l52.97638 0l0 28.53543l-52.97638 0z" fill-rule="evenodd"/><path fill="#a4c2f4" d="m306.42142 91.438385l0.015625 0.546875q0.546875 -0.640625 1.46875 -0.640625q1.03125 0 1.40625 0.78125q0.234375 -0.34375 0.625 -0.5625q0.40625 -0.21875 0.9375 -0.21875q1.625 0 1.65625 1.71875l0 3.296875l-0.84375 0l0 -3.25q0 -0.53125 -0.25 -0.78125q-0.234375 -0.265625 -0.8125 -0.265625q-0.46875 0 -0.78125 0.28125q-0.296875 0.265625 -0.34375 0.75l0 3.265625l-0.859375 0l0 -3.234375q0 -1.0625 -1.046875 -1.0625q-0.828125 0 -1.140625 0.703125l0 3.59375l-0.828125 0l0 -4.921875l0.796875 0zm9.425781 5.015625q-1.0 0 -1.640625 -0.65625q-0.625 -0.65625 -0.625 -1.765625l0 -0.15625q0 -0.734375 0.28125 -1.3125q0.28125 -0.578125 0.78125 -0.890625q0.5 -0.328125 1.09375 -0.328125q0.953125 0 1.484375 0.640625q0.546875 0.625 0.546875 1.796875l0 0.359375l-3.34375 0q0.015625 0.71875 0.421875 1.171875q0.40625 0.453125 1.046875 0.453125q0.4375 0 0.75 -0.1875q0.3125 -0.1875 0.546875 -0.484375l0.515625 0.40625q-0.625 0.953125 -1.859375 0.953125zm-0.109375 -4.421875q-0.515625 0 -0.859375 0.375q-0.34375 0.375 -0.421875 1.03125l2.46875 0l0 -0.0625q-0.046875 -0.640625 -0.359375 -0.984375q-0.296875 -0.359375 -0.828125 -0.359375zm5.379425 0.15625q-0.1875 -0.03125 -0.40625 -0.03125q-0.828125 0 -1.125 0.703125l0 3.5l-0.84375 0l0 -4.921875l0.8125 0l0.015625 0.5625q0.421875 -0.65625 1.171875 -0.65625q0.25 0 0.375 0.0625l0 0.78125zm0.49172974 1.671875q0 -1.15625 0.53125 -1.828125q0.53125 -0.6875 1.40625 -0.6875q0.90625 0 1.421875 0.640625l0.03125 -0.546875l0.765625 0l0 4.796875q0 0.96875 -0.5625 1.515625q-0.5625 0.546875 -1.515625 0.546875q-0.53125 0 -1.046875 -0.234375q-0.515625 -0.21875 -0.78125 -0.609375l0.4375 -0.515625q0.546875 0.671875 1.328125 0.671875q0.609375 0 0.953125 -0.34375q0.34375 -0.34375 0.34375 -0.96875l0 -0.421875q-0.5 0.578125 -1.375 0.578125q-0.875 0 -1.40625 -0.6875q-0.53125 -0.703125 -0.53125 -1.90625zm0.84375 0.09375q0 0.828125 0.34375 1.3125q0.34375 0.46875 0.953125 0.46875q0.796875 0 1.171875 -0.71875l0 -2.25q-0.390625 -0.703125 -1.15625 -0.703125q-0.609375 0 -0.96875 0.484375q-0.34375 0.46875 -0.34375 1.40625zm6.6396484 2.5q-1.0 0 -1.640625 -0.65625q-0.625 -0.65625 -0.625 -1.765625l0 -0.15625q0 -0.734375 0.28125 -1.3125q0.28125 -0.578125 0.78125 -0.890625q0.5 -0.328125 1.09375 -0.328125q0.953125 0 1.484375 0.640625q0.546875 0.625 0.546875 1.796875l0 0.359375l-3.34375 0q0.015625 0.71875 0.421875 1.171875q0.40625 0.453125 1.046875 0.453125q0.4375 0 0.75 -0.1875q0.3125 -0.1875 0.546875 -0.484375l0.515625 0.40625q-0.625 0.953125 -1.859375 0.953125zm-0.109375 -4.421875q-0.515625 0 -0.859375 0.375q-0.34375 0.375 -0.421875 1.03125l2.46875 0l0 -0.0625q-0.046875 -0.640625 -0.359375 -0.984375q-0.296875 -0.359375 -0.828125 -0.359375z" fill-rule="nonzero"/><path fill="#a4c2f4" d="m307.5031 106.875885q-0.5 0.578125 -1.453125 0.578125q-0.78125 0 -1.203125 -0.453125q-0.40625 -0.46875 -0.40625 -1.359375l0 -3.203125l0.84375 0l0 3.171875q0 1.125 0.90625 1.125q0.96875 0 1.28125 -0.71875l0 -3.578125l0.84375 0l0 4.921875l-0.796875 0l-0.015625 -0.484375zm6.2516785 -1.921875q0 1.125 -0.515625 1.8125q-0.515625 0.6875 -1.390625 0.6875q-0.890625 0 -1.40625 -0.578125l0 2.375l-0.84375 0l0 -6.8125l0.765625 0l0.046875 0.546875q0.515625 -0.640625 1.421875 -0.640625q0.890625 0 1.40625 0.671875q0.515625 0.65625 0.515625 1.859375l0 0.078125zm-0.84375 -0.09375q0 -0.84375 -0.359375 -1.3125q-0.34375 -0.484375 -0.96875 -0.484375q-0.765625 0 -1.140625 0.671875l0 2.359375q0.375 0.671875 1.15625 0.671875q0.609375 0 0.953125 -0.484375q0.359375 -0.484375 0.359375 -1.421875zm1.717804 0q0 -1.140625 0.53125 -1.828125q0.53125 -0.6875 1.40625 -0.6875q0.875 0 1.375 0.59375l0 -2.578125l0.84375 0l0 7.0l-0.78125 0l-0.03125 -0.53125q-0.515625 0.625 -1.40625 0.625q-0.859375 0 -1.40625 -0.703125q-0.53125 -0.703125 -0.53125 -1.828125l0 -0.0625zm0.84375 0.09375q0 0.828125 0.34375 1.3125q0.34375 0.46875 0.953125 0.46875q0.796875 0 1.171875 -0.71875l0 -2.265625q-0.375 -0.6875 -1.15625 -0.6875q-0.625 0 -0.96875 0.484375q-0.34375 0.46875 -0.34375 1.40625zm7.666992 2.40625q-0.078125 -0.140625 -0.125 -0.515625q-0.59375 0.609375 -1.40625 0.609375q-0.71875 0 -1.1875 -0.40625q-0.46875 -0.421875 -0.46875 -1.046875q0 -0.78125 0.578125 -1.203125q0.59375 -0.421875 1.65625 -0.421875l0.8125 0l0 -0.390625q0 -0.4375 -0.265625 -0.703125q-0.265625 -0.265625 -0.78125 -0.265625q-0.453125 0 -0.765625 0.234375q-0.296875 0.21875 -0.296875 0.546875l-0.84375 0q0 -0.375 0.265625 -0.71875q0.265625 -0.34375 0.703125 -0.53125q0.453125 -0.203125 1.0 -0.203125q0.84375 0 1.328125 0.421875q0.484375 0.421875 0.5 1.171875l0 2.265625q0 0.6875 0.171875 1.078125l0 0.078125l-0.875 0zm-1.40625 -0.640625q0.390625 0 0.75 -0.203125q0.359375 -0.203125 0.515625 -0.53125l0 -1.015625l-0.65625 0q-1.546875 0 -1.546875 0.90625q0 0.390625 0.265625 0.625q0.265625 0.21875 0.671875 0.21875zm4.5739746 -5.484375l0 1.203125l0.921875 0l0 0.640625l-0.921875 0l0 3.0625q0 0.296875 0.125 0.453125q0.125 0.140625 0.421875 0.140625q0.140625 0 0.390625 -0.0625l0 0.6875q-0.328125 0.09375 -0.640625 0.09375q-0.5625 0 -0.859375 -0.34375q-0.28125 -0.34375 -0.28125 -0.96875l0 -3.0625l-0.890625 0l0 -0.640625l0.890625 0l0 -1.203125l0.84375 0zm3.9533997 6.21875q-1.0 0 -1.640625 -0.65625q-0.625 -0.65625 -0.625 -1.765625l0 -0.15625q0 -0.734375 0.28125 -1.3125q0.28125 -0.578125 0.78125 -0.890625q0.5 -0.328125 1.09375 -0.328125q0.953125 0 1.484375 0.640625q0.546875 0.625 0.546875 1.796875l0 0.359375l-3.34375 0q0.015625 0.71875 0.421875 1.171875q0.40625 0.453125 1.046875 0.453125q0.4375 0 0.75 -0.1875q0.3125 -0.1875 0.546875 -0.484375l0.515625 0.40625q-0.625 0.953125 -1.859375 0.953125zm-0.109375 -4.421875q-0.515625 0 -0.859375 0.375q-0.34375 0.375 -0.421875 1.03125l2.46875 0l0 -0.0625q-0.046875 -0.640625 -0.359375 -0.984375q-0.296875 -0.359375 -0.828125 -0.359375z" fill-rule="nonzero"/></g></svg>