<svg version="1.1" viewBox="0.0 0.0 523.3858267716536 162.2782152230971" fill="none" stroke="none" stroke-linecap="square" stroke-miterlimit="10" xmlns:xlink="http://www.w3.org/1999/xlink" xmlns="http://www.w3.org/2000/svg"><clipPath id="p.0"><path d="m0 0l523.3858 0l0 162.27821l-523.3858 0l0 -162.27821z" clip-rule="nonzero"/></clipPath><g clip-path="url(#p.0)"><path fill="#000000" fill-opacity="0.0" d="m0 0l523.3858 0l0 162.27821l-523.3858 0z" fill-rule="evenodd"/><path fill="#000000" fill-opacity="0.0" d="m291.89502 128.25722l82.17322 0" fill-rule="evenodd"/><path stroke="#4a86e8" stroke-width="3.0" stroke-linejoin="round" stroke-linecap="butt" d="m291.89502 128.25722l64.17322 0" fill-rule="evenodd"/><path fill="#4a86e8" stroke="#4a86e8" stroke-width="3.0" stroke-linecap="butt" d="m356.06824 133.21242l13.614288 -4.9552l-13.614288 -4.9552z" fill-rule="evenodd"/><path fill="#000000" fill-opacity="0.0" d="m205.34383 78.71916c21.637802 0 32.456696 12.385826 43.27559 24.771652c10.818909 12.385826 21.637817 24.771652 43.275604 24.771652" fill-rule="evenodd"/><path stroke="#4a86e8" stroke-width="3.0" stroke-linejoin="round" stroke-linecap="butt" d="m205.34383 78.71916c21.637802 0 32.456696 12.385826 43.27559 24.771652c10.818909 12.385826 21.637817 24.771652 43.275604 24.771652" fill-rule="evenodd"/><path fill="#000000" fill-opacity="0.0" d="m367.77954 128.26772c21.015747 0 31.52362 -12.370079 42.031494 -24.740158c10.507874 -12.370079 21.015747 -24.740158 42.031494 -24.740158" fill-rule="evenodd"/><path stroke="#4a86e8" stroke-width="3.0" stroke-linejoin="round" stroke-linecap="butt" d="m367.77954 128.26772c21.015747 0 31.52362 -12.370079 42.031494 -24.740158c10.507874 -12.370079 21.015747 -24.740158 42.031494 -24.740158" fill-rule="evenodd"/><path fill="#000000" fill-opacity="0.0" d="m477.63254 97.47769l0 -36.97638" fill-rule="evenodd"/><path stroke="#f4b400" stroke-width="2.0" stroke-linejoin="round" stroke-linecap="butt" d="m477.63254 97.47769l0 -36.97638" fill-rule="evenodd"/><path fill="#000000" fill-opacity="0.0" d="m170.84776 78.091866l0 -17.574806" fill-rule="evenodd"/><path stroke="#0f9d58" stroke-width="2.0" stroke-linejoin="round" stroke-linecap="butt" d="m170.84776 78.091866l0 -17.574806" fill-rule="evenodd"/><path fill="#000000" fill-opacity="0.0" d="m259.27823 78.72179c23.834625 0 35.751953 -17.251968 47.66928 -34.50394c11.917328 -17.251966 23.834656 -34.503937 47.66928 -34.503937" fill-rule="evenodd"/><path stroke="#4a86e8" stroke-width="3.0" stroke-linejoin="round" stroke-linecap="butt" d="m259.27823 78.72179c23.834625 0 35.751953 -17.251968 47.66928 -34.50394c11.917328 -17.251966 23.834656 -34.503937 47.66928 -34.503937" fill-rule="evenodd"/><path fill="#000000" fill-opacity="0.0" d="m167.08398 78.71916l180.62991 0" fill-rule="evenodd"/><path stroke="#f4b400" stroke-width="3.0" stroke-linejoin="round" stroke-linecap="butt" d="m167.08398 78.71916l162.62991 0" fill-rule="evenodd"/><path fill="#f4b400" stroke="#f4b400" stroke-width="3.0" stroke-linecap="butt" d="m329.7139 83.674355l13.614319 -4.9551926l-13.614319 -4.9552z" fill-rule="evenodd"/><path fill="#000000" fill-opacity="0.0" d="m98.002625 78.71916l75.968506 0" fill-rule="evenodd"/><path stroke="#0f9d58" stroke-width="3.0" stroke-linejoin="round" stroke-linecap="butt" d="m98.002625 78.71916l57.968506 0" fill-rule="evenodd"/><path fill="#0f9d58" stroke="#0f9d58" stroke-width="3.0" stroke-linecap="butt" d="m155.97113 83.674355l13.614288 -4.9551926l-13.614288 -4.9552z" fill-rule="evenodd"/><path fill="#000000" fill-opacity="0.0" d="m11.863517 79.34646l105.98425 0l0 21.952751l-105.98425 0z" fill-rule="evenodd"/><path fill="#0f9d58" d="m49.63758 93.26221q0 -0.375 -0.375 -0.59375q-0.375 -0.21875 -1.203125 -0.390625q-2.765625 -0.578125 -2.765625 -2.34375q0 -1.03125 0.859375 -1.71875q0.859375 -0.703125 2.234375 -0.703125q1.46875 0 2.359375 0.703125q0.890625 0.6875 0.890625 1.796875l-2.078125 0q0 -0.4375 -0.28125 -0.71875q-0.28125 -0.296875 -0.890625 -0.296875q-0.53125 0 -0.8125 0.234375q-0.28125 0.234375 -0.28125 0.59375q0 0.34375 0.3125 0.5625q0.328125 0.203125 1.09375 0.359375q0.78125 0.15625 1.3125 0.34375q1.640625 0.609375 1.640625 2.09375q0 1.046875 -0.90625 1.703125q-0.90625 0.65625 -2.34375 0.65625q-0.984375 0 -1.734375 -0.34375q-0.75 -0.34375 -1.1875 -0.953125q-0.421875 -0.609375 -0.421875 -1.3125l1.953125 0q0.03125 0.5625 0.40625 0.859375q0.390625 0.28125 1.015625 0.28125q0.59375 0 0.890625 -0.21875q0.3125 -0.234375 0.3125 -0.59375zm5.81691 -7.5l0 1.890625l1.328125 0l0 1.53125l-1.328125 0l0 3.859375q0 0.421875 0.15625 0.609375q0.171875 0.1875 0.640625 0.1875q0.34375 0 0.609375 -0.046875l0 1.5625q-0.609375 0.1875 -1.25 0.1875q-2.171875 0 -2.21875 -2.1875l0 -4.171875l-1.125 0l0 -1.53125l1.125 0l0 -1.890625l2.0625 0zm6.9678345 9.640625q-0.140625 -0.28125 -0.203125 -0.6875q-0.75 0.828125 -1.953125 0.828125q-1.140625 0 -1.890625 -0.65625q-0.75 -0.65625 -0.75 -1.65625q0 -1.234375 0.90625 -1.890625q0.921875 -0.65625 2.640625 -0.671875l0.953125 0l0 -0.4375q0 -0.53125 -0.28125 -0.859375q-0.265625 -0.328125 -0.859375 -0.328125q-0.515625 0 -0.8125 0.25q-0.296875 0.25 -0.296875 0.6875l-2.078125 0q0 -0.671875 0.40625 -1.234375q0.421875 -0.578125 1.171875 -0.90625q0.765625 -0.328125 1.71875 -0.328125q1.421875 0 2.265625 0.71875q0.84375 0.71875 0.84375 2.03125l0 3.34375q0.015625 1.109375 0.3125 1.671875l0 0.125l-2.09375 0zm-1.703125 -1.4375q0.453125 0 0.828125 -0.203125q0.390625 -0.203125 0.578125 -0.546875l0 -1.328125l-0.765625 0q-1.5625 0 -1.65625 1.0625l0 0.125q0 0.390625 0.265625 0.640625q0.265625 0.25 0.75 0.25zm12.045197 -2.359375q0 1.859375 -0.796875 2.90625q-0.78125 1.03125 -2.203125 1.03125q-1.265625 0 -2.015625 -0.96875l-0.09375 0.828125l-1.859375 0l0 -11.0l2.0625 0l0 3.953125q0.71875 -0.84375 1.890625 -0.84375q1.40625 0 2.203125 1.046875q0.8125 1.046875 0.8125 2.921875l0 0.125zm-2.0625 -0.15625q0 -1.171875 -0.375 -1.703125q-0.375 -0.546875 -1.109375 -0.546875q-0.984375 0 -1.359375 0.8125l0 3.046875q0.375 0.8125 1.375 0.8125q1.0 0 1.3125 -0.984375q0.15625 -0.46875 0.15625 -1.4375zm5.532547 3.953125l-2.078125 0l0 -11.0l2.078125 0l0 11.0zm5.26091 0.140625q-1.703125 0 -2.78125 -1.046875q-1.0625 -1.046875 -1.0625 -2.78125l0 -0.203125q0 -1.15625 0.453125 -2.078125q0.453125 -0.921875 1.265625 -1.421875q0.828125 -0.5 1.890625 -0.5q1.59375 0 2.5 1.015625q0.921875 1.0 0.921875 2.828125l0 0.84375l-4.9375 0q0.109375 0.765625 0.609375 1.21875q0.5 0.453125 1.28125 0.453125q1.1875 0 1.859375 -0.859375l1.015625 1.140625q-0.46875 0.65625 -1.265625 1.03125q-0.78125 0.359375 -1.75 0.359375zm-0.234375 -6.359375q-0.625 0 -1.015625 0.421875q-0.375 0.421875 -0.46875 1.1875l2.875 0l0 -0.15625q-0.015625 -0.6875 -0.375 -1.0625q-0.359375 -0.390625 -1.015625 -0.390625z" fill-rule="nonzero"/><path fill="#000000" fill-opacity="0.0" d="m356.8176 56.034122l105.98425 0l0 21.952755l-105.98425 0z" fill-rule="evenodd"/><path fill="#f4b400" d="m389.39322 64.3405l0.0625 0.875q0.828125 -1.015625 2.234375 -1.015625q1.484375 0 2.046875 1.1875q0.8125 -1.1875 2.328125 -1.1875q1.25 0 1.859375 0.734375q0.625 0.734375 0.625 2.21875l0 4.9375l-2.078125 0l0 -4.9375q0 -0.65625 -0.265625 -0.953125q-0.25 -0.3125 -0.890625 -0.3125q-0.9375 0 -1.296875 0.890625l0.015625 5.3125l-2.078125 0l0 -4.9375q0 -0.671875 -0.265625 -0.96875q-0.265625 -0.296875 -0.890625 -0.296875q-0.890625 0 -1.28125 0.734375l0 5.46875l-2.0625 0l0 -7.75l1.9375 0zm15.235138 7.75q-0.140625 -0.28125 -0.203125 -0.6875q-0.75 0.828125 -1.953125 0.828125q-1.140625 0 -1.890625 -0.65625q-0.75 -0.65625 -0.75 -1.65625q0 -1.234375 0.90625 -1.890625q0.921875 -0.65625 2.640625 -0.671875l0.953125 0l0 -0.4375q0 -0.53125 -0.28125 -0.859375q-0.265625 -0.328125 -0.859375 -0.328125q-0.515625 0 -0.8125 0.25q-0.296875 0.25 -0.296875 0.6875l-2.078125 0q0 -0.671875 0.40625 -1.234375q0.421875 -0.578125 1.171875 -0.90625q0.765625 -0.328125 1.71875 -0.328125q1.421875 0 2.265625 0.71875q0.84375 0.71875 0.84375 2.03125l0 3.34375q0.015625 1.109375 0.3125 1.671875l0 0.125l-2.09375 0zm-1.703125 -1.4375q0.453125 0 0.828125 -0.203125q0.390625 -0.203125 0.578125 -0.546875l0 -1.328125l-0.765625 0q-1.5625 0 -1.65625 1.0625l0 0.125q0 0.390625 0.265625 0.640625q0.265625 0.25 0.75 0.25zm9.263947 -0.703125q0 -0.375 -0.375 -0.59375q-0.375 -0.21875 -1.203125 -0.390625q-2.765625 -0.578125 -2.765625 -2.34375q0 -1.03125 0.859375 -1.71875q0.859375 -0.703125 2.234375 -0.703125q1.46875 0 2.359375 0.703125q0.890625 0.6875 0.890625 1.796875l-2.078125 0q0 -0.4375 -0.28125 -0.71875q-0.28125 -0.296875 -0.890625 -0.296875q-0.53125 0 -0.8125 0.234375q-0.28125 0.234375 -0.28125 0.59375q0 0.34375 0.3125 0.5625q0.328125 0.203125 1.09375 0.359375q0.78125 0.15625 1.3125 0.34375q1.640625 0.609375 1.640625 2.09375q0 1.046875 -0.90625 1.703125q-0.90625 0.65625 -2.34375 0.65625q-0.984375 0 -1.734375 -0.34375q-0.75 -0.34375 -1.1875 -0.953125q-0.421875 -0.609375 -0.421875 -1.3125l1.953125 0q0.03125 0.5625 0.40625 0.859375q0.390625 0.28125 1.015625 0.28125q0.59375 0 0.890625 -0.21875q0.3125 -0.234375 0.3125 -0.59375zm5.8168945 -7.5l0 1.890625l1.328125 0l0 1.53125l-1.328125 0l0 3.859375q0 0.421875 0.15625 0.609375q0.171875 0.1875 0.640625 0.1875q0.34375 0 0.609375 -0.046875l0 1.5625q-0.609375 0.1875 -1.25 0.1875q-2.171875 0 -2.21875 -2.1875l0 -4.171875l-1.125 0l0 -1.53125l1.125 0l0 -1.890625l2.0625 0zm6.0459595 9.78125q-1.703125 0 -2.78125 -1.046875q-1.0625 -1.046875 -1.0625 -2.78125l0 -0.203125q0 -1.15625 0.453125 -2.078125q0.453125 -0.921875 1.265625 -1.421875q0.828125 -0.5 1.890625 -0.5q1.59375 0 2.5 1.015625q0.921875 1.0 0.921875 2.828125l0 0.84375l-4.9375 0q0.109375 0.765625 0.609375 1.21875q0.5 0.453125 1.28125 0.453125q1.1875 0 1.859375 -0.859375l1.015625 1.140625q-0.46875 0.65625 -1.265625 1.03125q-0.78125 0.359375 -1.75 0.359375zm-0.234375 -6.359375q-0.625 0 -1.015625 0.421875q-0.375 0.421875 -0.46875 1.1875l2.875 0l0 -0.15625q-0.015625 -0.6875 -0.375 -1.0625q-0.359375 -0.390625 -1.015625 -0.390625zm8.937744 0.421875q-0.421875 -0.0625 -0.734375 -0.0625q-1.171875 0 -1.546875 0.796875l0 5.0625l-2.0625 0l0 -7.75l1.953125 0l0.0625 0.9375q0.609375 -1.078125 1.71875 -1.078125q0.34375 0 0.640625 0.09375l-0.03125 2.0z" fill-rule="nonzero"/><path fill="#000000" fill-opacity="0.0" d="m304.4357 79.34646c0 12.228348 10.818909 18.342522 21.637787 24.456688c10.818909 6.114174 21.637787 12.228348 21.637787 24.456696" fill-rule="evenodd"/><path stroke="#4a86e8" stroke-width="3.0" stroke-linejoin="round" stroke-linecap="butt" stroke-dasharray="3.0,9.0" d="m304.4357 79.34646c0 12.228348 10.818909 18.342522 21.637787 24.456688c10.818909 6.114174 21.637787 12.228348 21.637787 24.456696" fill-rule="evenodd"/><path fill="#000000" fill-opacity="0.0" d="m352.10236 9.721785l119.37009 0" fill-rule="evenodd"/><path stroke="#4a86e8" stroke-width="3.0" stroke-linejoin="round" stroke-linecap="butt" d="m352.10236 9.721785l101.37009 0" fill-rule="evenodd"/><path fill="#4a86e8" stroke="#4a86e8" stroke-width="3.0" stroke-linecap="butt" d="m453.47244 14.676982l13.614288 -4.9551973l-13.614288 -4.9551973z" fill-rule="evenodd"/><path fill="#000000" fill-opacity="0.0" d="m275.5853 78.71916l202.04724 0" fill-rule="evenodd"/><path stroke="#f4b400" stroke-width="2.0" stroke-linejoin="round" stroke-linecap="butt" stroke-dasharray="8.0,6.0" d="m275.5853 78.71916l190.04724 0" fill-rule="evenodd"/><path fill="#f4b400" stroke="#f4b400" stroke-width="2.0" stroke-linecap="butt" d="m465.63254 82.02263l9.076202 -3.3034668l-9.076202 -3.3034668z" fill-rule="evenodd"/><path fill="#000000" fill-opacity="0.0" d="m116.026245 78.091866l0 -17.574806" fill-rule="evenodd"/><path stroke="#424242" stroke-width="1.0" stroke-linejoin="round" stroke-linecap="butt" d="m116.026245 78.091866l0 -17.574806" fill-rule="evenodd"/><path fill="#000000" fill-opacity="0.0" d="m57.062992 78.091866l0 -17.574806" fill-rule="evenodd"/><path stroke="#424242" stroke-width="1.0" stroke-linejoin="round" stroke-linecap="butt" d="m57.062992 78.091866l0 -17.574806" fill-rule="evenodd"/><path fill="#000000" fill-opacity="0.0" d="m23.566929 38.564304l66.99213 0l0 21.952755l-66.99213 0z" fill-rule="evenodd"/><path fill="#000000" d="m49.063534 50.293808q0 2.125 -0.734375 3.15625q-0.71875 1.015625 -2.25 1.015625q-1.515625 0 -2.25 -1.0q-0.71875 -1.0 -0.75 -3.0l0 -1.609375q0 -2.09375 0.71875 -3.109375q0.71875 -1.015625 2.265625 -1.015625q1.53125 0 2.25 0.984375q0.71875 0.984375 0.75 3.015625l0 1.5625zm-1.203125 -1.640625q0 -1.53125 -0.4375 -2.21875q-0.421875 -0.703125 -1.359375 -0.703125q-0.921875 0 -1.34375 0.703125q-0.421875 0.6875 -0.4375 2.125l0 1.921875q0 1.546875 0.4375 2.28125q0.453125 0.71875 1.359375 0.71875q0.890625 0 1.3125 -0.6875q0.4375 -0.6875 0.46875 -2.171875l0 -1.96875zm2.8903046 5.0625q0 -0.3125 0.1875 -0.515625q0.1875 -0.21875 0.546875 -0.21875q0.375 0 0.5625 0.21875q0.203125 0.203125 0.203125 0.515625q0 0.296875 -0.203125 0.5q-0.1875 0.203125 -0.5625 0.203125q-0.359375 0 -0.546875 -0.203125q-0.1875 -0.203125 -0.1875 -0.5zm7.3202515 0.625l-1.21875 0l0 -8.03125l-2.421875 0.90625l0 -1.09375l3.453125 -1.296875l0.1875 0l0 9.515625zm3.6715546 -0.625q0 -0.3125 0.1875 -0.515625q0.1875 -0.21875 0.546875 -0.21875q0.375 0 0.5625 0.21875q0.203125 0.203125 0.203125 0.515625q0 0.296875 -0.203125 0.5q-0.1875 0.203125 -0.5625 0.203125q-0.359375 0 -0.546875 -0.203125q-0.1875 -0.203125 -0.1875 -0.5zm9.30463 -3.421875q0 2.125 -0.734375 3.15625q-0.71875 1.015625 -2.25 1.015625q-1.515625 0 -2.25 -1.0q-0.71875 -1.0 -0.75 -3.0l0 -1.609375q0 -2.09375 0.71875 -3.109375q0.71875 -1.015625 2.265625 -1.015625q1.53125 0 2.25 0.984375q0.71875 0.984375 0.75 3.015625l0 1.5625zm-1.203125 -1.640625q0 -1.53125 -0.4375 -2.21875q-0.421875 -0.703125 -1.359375 -0.703125q-0.921875 0 -1.34375 0.703125q-0.421875 0.6875 -0.4375 2.125l0 1.921875q0 1.546875 0.4375 2.28125q0.453125 0.71875 1.359375 0.71875q0.890625 0 1.3125 -0.6875q0.4375 -0.6875 0.46875 -2.171875l0 -1.96875z" fill-rule="nonzero"/><path fill="#000000" fill-opacity="0.0" d="m82.53018 38.564304l66.99213 0l0 21.952755l-66.99213 0z" fill-rule="evenodd"/><path fill="#000000" d="m108.02679 50.293808q0 2.125 -0.734375 3.15625q-0.71875 1.015625 -2.25 1.015625q-1.515625 0 -2.25 -1.0q-0.71875 -1.0 -0.75 -3.0l0 -1.609375q0 -2.09375 0.71875 -3.109375q0.71875 -1.015625 2.265625 -1.015625q1.53125 0 2.25 0.984375q0.71875 0.984375 0.75 3.015625l0 1.5625zm-1.203125 -1.640625q0 -1.53125 -0.4375 -2.21875q-0.421875 -0.703125 -1.359375 -0.703125q-0.921875 0 -1.34375 0.703125q-0.421875 0.6875 -0.4375 2.125l0 1.921875q0 1.546875 0.4375 2.28125q0.453125 0.71875 1.359375 0.71875q0.890625 0 1.3125 -0.6875q0.4375 -0.6875 0.46875 -2.171875l0 -1.96875zm2.8903046 5.0625q0 -0.3125 0.1875 -0.515625q0.1875 -0.21875 0.546875 -0.21875q0.375 0 0.5625 0.21875q0.203125 0.203125 0.203125 0.515625q0 0.296875 -0.203125 0.5q-0.1875 0.203125 -0.5625 0.203125q-0.359375 0 -0.546875 -0.203125q-0.1875 -0.203125 -0.1875 -0.5zm7.3202515 0.625l-1.21875 0l0 -8.03125l-2.421875 0.90625l0 -1.09375l3.453125 -1.296875l0.1875 0l0 9.515625zm3.6715546 -0.625q0 -0.3125 0.1875 -0.515625q0.1875 -0.21875 0.546875 -0.21875q0.375 0 0.5625 0.21875q0.203125 0.203125 0.203125 0.515625q0 0.296875 -0.203125 0.5q-0.1875 0.203125 -0.5625 0.203125q-0.359375 0 -0.546875 -0.203125q-0.1875 -0.203125 -0.1875 -0.5zm7.320259 0.625l-1.2187576 0l0 -8.03125l-2.421875 0.90625l0 -1.09375l3.453125 -1.296875l0.18750763 0l0 9.515625z" fill-rule="nonzero"/><path fill="#000000" fill-opacity="0.0" d="m137.3517 38.564304l66.99213 0l0 21.952755l-66.99213 0z" fill-rule="evenodd"/><path fill="#000000" d="m162.84831 50.293808q0 2.125 -0.734375 3.15625q-0.71875 1.015625 -2.25 1.015625q-1.515625 0 -2.25 -1.0q-0.71875 -1.0 -0.75 -3.0l0 -1.609375q0 -2.09375 0.71875 -3.109375q0.71875 -1.015625 2.265625 -1.015625q1.53125 0 2.25 0.984375q0.71875 0.984375 0.75 3.015625l0 1.5625zm-1.203125 -1.640625q0 -1.53125 -0.4375 -2.21875q-0.421875 -0.703125 -1.359375 -0.703125q-0.921875 0 -1.34375 0.703125q-0.421875 0.6875 -0.4375 2.125l0 1.921875q0 1.546875 0.4375 2.28125q0.453125 0.71875 1.359375 0.71875q0.890625 0 1.3125 -0.6875q0.4375 -0.6875 0.46875 -2.171875l0 -1.96875zm2.8903046 5.0625q0 -0.3125 0.1875 -0.515625q0.1875 -0.21875 0.546875 -0.21875q0.375 0 0.5625 0.21875q0.203125 0.203125 0.203125 0.515625q0 0.296875 -0.203125 0.5q-0.1875 0.203125 -0.5625 0.203125q-0.359375 0 -0.546875 -0.203125q-0.1875 -0.203125 -0.1875 -0.5zm9.570251 0.625l-6.21875 0l0 -0.859375l3.28125 -3.65625q0.734375 -0.828125 1.0 -1.34375q0.28125 -0.515625 0.28125 -1.0625q0 -0.75 -0.453125 -1.21875q-0.4375 -0.46875 -1.1875 -0.46875q-0.890625 0 -1.390625 0.515625q-0.5 0.5 -0.5 1.40625l-1.203125 0q0 -1.296875 0.84375 -2.109375q0.84375 -0.8125 2.25 -0.8125q1.328125 0 2.09375 0.703125q0.765625 0.6875 0.765625 1.84375q0 1.390625 -1.78125 3.328125l-2.546875 2.75l4.765625 0l0 0.984375zm1.4215546 -0.625q0 -0.3125 0.1875 -0.515625q0.1875 -0.21875 0.546875 -0.21875q0.375 0 0.5625 0.21875q0.203125 0.203125 0.203125 0.515625q0 0.296875 -0.203125 0.5q-0.1875 0.203125 -0.5625 0.203125q-0.359375 0 -0.546875 -0.203125q-0.1875 -0.203125 -0.1875 -0.5zm9.304626 -3.421875q0 2.125 -0.734375 3.15625q-0.71875 1.015625 -2.25 1.015625q-1.515625 0 -2.25 -1.0q-0.71875 -1.0 -0.75 -3.0l0 -1.609375q0 -2.09375 0.71875 -3.109375q0.71875 -1.015625 2.265625 -1.015625q1.53125 0 2.25 0.984375q0.71875 0.984375 0.75 3.015625l0 1.5625zm-1.203125 -1.640625q0 -1.53125 -0.4375 -2.21875q-0.421875 -0.703125 -1.359375 -0.703125q-0.921875 0 -1.34375 0.703125q-0.421875 0.6875 -0.4375 2.125l0 1.921875q0 1.546875 0.4375 2.28125q0.453125 0.71875 1.359375 0.71875q0.890625 0 1.3125 -0.6875q0.4375 -0.6875 0.46875 -2.171875l0 -1.96875z" fill-rule="nonzero"/><path fill="#000000" fill-opacity="0.0" d="m246.12335 129.58005l126.677185 0l0 21.952759l-126.677185 0z" fill-rule="evenodd"/><path fill="#4a86e8" d="m272.2249 145.77705q-1.703125 0 -2.78125 -1.046875q-1.0625 -1.046875 -1.0625 -2.78125l0 -0.203125q0 -1.15625 0.453125 -2.078125q0.453125 -0.921875 1.265625 -1.421875q0.828125 -0.5 1.890625 -0.5q1.59375 0 2.5 1.015625q0.921875 1.0 0.921875 2.828125l0 0.84375l-4.9375 0q0.109375 0.765625 0.609375 1.21875q0.5 0.453125 1.28125 0.453125q1.1875 0 1.859375 -0.859375l1.015625 1.140625q-0.46875 0.65625 -1.265625 1.03125q-0.78125 0.359375 -1.75 0.359375zm-0.234375 -6.359375q-0.625 0 -1.015625 0.421875q-0.375 0.421875 -0.46875 1.1875l2.875 0l0 -0.15625q-0.015625 -0.6875 -0.375 -1.0625q-0.359375 -0.390625 -1.015625 -0.390625zm11.562714 2.421875q0 1.78125 -0.8125 2.859375q-0.8125 1.078125 -2.1875 1.078125q-1.1875 0 -1.90625 -0.8125l0 3.65625l-2.0625 0l0 -10.734375l1.921875 0l0.0625 0.765625q0.75 -0.90625 1.96875 -0.90625q1.421875 0 2.21875 1.0625q0.796875 1.0625 0.796875 2.921875l0 0.109375zm-2.0625 -0.15625q0 -1.078125 -0.390625 -1.65625q-0.375 -0.59375 -1.109375 -0.59375q-0.96875 0 -1.34375 0.75l0 3.15625q0.375 0.765625 1.359375 0.765625q1.484375 0 1.484375 -2.421875zm5.5325623 3.953125l-2.078125 0l0 -7.75l2.078125 0l0 7.75zm-2.203125 -9.75q0 -0.46875 0.3125 -0.765625q0.3125 -0.296875 0.84375 -0.296875q0.53125 0 0.84375 0.296875q0.3125 0.296875 0.3125 0.765625q0 0.46875 -0.3125 0.78125q-0.3125 0.296875 -0.84375 0.296875q-0.515625 0 -0.84375 -0.296875q-0.3125 -0.3125 -0.3125 -0.78125zm7.12027 8.21875q0.578125 0 0.921875 -0.3125q0.359375 -0.3125 0.375 -0.828125l1.9375 0q0 0.78125 -0.421875 1.4375q-0.421875 0.65625 -1.15625 1.015625q-0.734375 0.359375 -1.625 0.359375q-1.65625 0 -2.625 -1.046875q-0.953125 -1.0625 -0.953125 -2.921875l0 -0.140625q0 -1.78125 0.953125 -2.84375q0.953125 -1.078125 2.609375 -1.078125q1.453125 0 2.328125 0.828125q0.890625 0.828125 0.890625 2.203125l-1.9375 0q-0.015625 -0.59375 -0.375 -0.96875q-0.34375 -0.390625 -0.9375 -0.390625q-0.71875 0 -1.09375 0.53125q-0.359375 0.53125 -0.359375 1.703125l0 0.21875q0 1.203125 0.359375 1.71875q0.359375 0.515625 1.109375 0.515625zm5.0805054 2.421875l-1.546875 0l3.84375 -11.3125l1.53125 0l-3.828125 11.3125zm7.63089 -4.0l-0.75 0.75l0 2.359375l-2.0625 0l0 -11.0l2.0625 0l0 6.09375l0.40625 -0.515625l1.984375 -2.328125l2.484375 0l-2.796875 3.234375l3.03125 4.515625l-2.375 0l-1.984375 -3.109375zm6.954071 -4.640625l0.0625 0.875q0.828125 -1.015625 2.234375 -1.015625q1.484375 0 2.046875 1.1875q0.8125 -1.1875 2.328125 -1.1875q1.25 0 1.859375 0.734375q0.625 0.734375 0.625 2.21875l0 4.9375l-2.078125 0l0 -4.9375q0 -0.65625 -0.265625 -0.953125q-0.25 -0.3125 -0.890625 -0.3125q-0.9375 0 -1.296875 0.890625l0.015625 5.3125l-2.078125 0l0 -4.9375q0 -0.671875 -0.265625 -0.96875q-0.265625 -0.296875 -0.890625 -0.296875q-0.890625 0 -1.28125 0.734375l0 5.46875l-2.0625 0l0 -7.75l1.9375 0zm15.235107 7.75q-0.140625 -0.28125 -0.203125 -0.6875q-0.75 0.828125 -1.953125 0.828125q-1.140625 0 -1.890625 -0.65625q-0.75 -0.65625 -0.75 -1.65625q0 -1.234375 0.90625 -1.890625q0.921875 -0.65625 2.640625 -0.671875l0.953125 0l0 -0.4375q0 -0.53125 -0.28125 -0.859375q-0.265625 -0.328125 -0.859375 -0.328125q-0.515625 0 -0.8125 0.25q-0.296875 0.25 -0.296875 0.6875l-2.078125 0q0 -0.671875 0.40625 -1.234375q0.421875 -0.578125 1.171875 -0.90625q0.765625 -0.328125 1.71875 -0.328125q1.421875 0 2.265625 0.71875q0.84375 0.71875 0.84375 2.03125l0 3.34375q0.015625 1.109375 0.3125 1.671875l0 0.125l-2.09375 0zm-1.703125 -1.4375q0.453125 0 0.828125 -0.203125q0.390625 -0.203125 0.578125 -0.546875l0 -1.328125l-0.765625 0q-1.5625 0 -1.65625 1.0625l0 0.125q0 0.390625 0.265625 0.640625q0.265625 0.25 0.75 0.25zm7.5451965 -8.203125l0 1.890625l1.328125 0l0 1.53125l-1.328125 0l0 3.859375q0 0.421875 0.15625 0.609375q0.171875 0.1875 0.640625 0.1875q0.34375 0 0.609375 -0.046875l0 1.5625q-0.609375 0.1875 -1.25 0.1875q-2.171875 0 -2.21875 -2.1875l0 -4.171875l-1.125 0l0 -1.53125l1.125 0l0 -1.890625l2.0625 0zm6.8272095 3.84375q-0.421875 -0.0625 -0.734375 -0.0625q-1.171875 0 -1.546875 0.796875l0 5.0625l-2.0625 0l0 -7.75l1.953125 0l0.0625 0.9375q0.609375 -1.078125 1.71875 -1.078125q0.34375 0 0.640625 0.09375l-0.03125 2.0zm3.1895752 5.796875l-2.078125 0l0 -7.75l2.078125 0l0 7.75zm-2.203125 -9.75q0 -0.46875 0.3125 -0.765625q0.3125 -0.296875 0.84375 -0.296875q0.53125 0 0.84375 0.296875q0.3125 0.296875 0.3125 0.765625q0 0.46875 -0.3125 0.78125q-0.3125 0.296875 -0.84375 0.296875q-0.515625 0 -0.84375 -0.296875q-0.3125 -0.3125 -0.3125 -0.78125zm6.854645 4.3125l1.296875 -2.3125l2.203125 0l-2.203125 3.796875l2.296875 3.953125l-2.21875 0l-1.375 -2.4375l-1.375 2.4375l-2.21875 0l2.296875 -3.953125l-2.203125 -3.796875l2.21875 0l1.28125 2.3125z" fill-rule="nonzero"/><path fill="#000000" fill-opacity="0.0" d="m322.90552 14.724409l148.56693 0l0 21.952757l-148.56693 0z" fill-rule="evenodd"/><path fill="#4a86e8" d="m344.11847 30.921412q-1.703125 0 -2.78125 -1.046875q-1.0625 -1.046875 -1.0625 -2.78125l0 -0.203125q0 -1.15625 0.453125 -2.078125q0.453125 -0.921875 1.265625 -1.421875q0.828125 -0.5 1.890625 -0.5q1.59375 0 2.5 1.015625q0.921875 1.0 0.921875 2.828125l0 0.84375l-4.9375 0q0.109375 0.765625 0.609375 1.21875q0.5 0.453125 1.28125 0.453125q1.1875 0 1.859375 -0.859375l1.015625 1.140625q-0.46875 0.65625 -1.265625 1.03125q-0.78125 0.359375 -1.75 0.359375zm-0.234375 -6.359375q-0.625 0 -1.015625 0.421875q-0.375 0.421875 -0.46875 1.1875l2.875 0l0 -0.15625q-0.015625 -0.6875 -0.375 -1.0625q-0.359375 -0.390625 -1.015625 -0.390625zm11.562714 2.421875q0 1.78125 -0.8125 2.859375q-0.8125 1.078125 -2.1875 1.078125q-1.1875 0 -1.90625 -0.8125l0 3.656252l-2.0625 0l0 -10.734377l1.921875 0l0.0625 0.765625q0.75 -0.90625 1.96875 -0.90625q1.421875 0 2.21875 1.0625q0.796875 1.0625 0.796875 2.921875l0 0.109375zm-2.0625 -0.15625q0 -1.078125 -0.390625 -1.65625q-0.375 -0.59375 -1.109375 -0.59375q-0.96875 0 -1.34375 0.75l0 3.15625q0.375 0.765625 1.359375 0.765625q1.484375 0 1.484375 -2.421875zm5.5325623 3.953125l-2.078125 0l0 -7.75l2.078125 0l0 7.75zm-2.203125 -9.75q0 -0.46875 0.3125 -0.765625q0.3125 -0.296875 0.84375 -0.296875q0.53125 0 0.84375 0.296875q0.3125 0.296875 0.3125 0.765625q0 0.46875 -0.3125 0.78125q-0.3125 0.296875 -0.84375 0.296875q-0.515625 0 -0.84375 -0.296875q-0.3125 -0.3125 -0.3125 -0.78125zm7.12027 8.21875q0.578125 0 0.921875 -0.3125q0.359375 -0.3125 0.375 -0.828125l1.9375 0q0 0.78125 -0.421875 1.4375q-0.421875 0.65625 -1.15625 1.015625q-0.734375 0.359375 -1.625 0.359375q-1.65625 0 -2.625 -1.046875q-0.953125 -1.0625 -0.953125 -2.921875l0 -0.140625q0 -1.78125 0.953125 -2.84375q0.953125 -1.078125 2.609375 -1.078125q1.453125 0 2.328125 0.828125q0.890625 0.828125 0.890625 2.203125l-1.9375 0q-0.015625 -0.59375 -0.375 -0.96875q-0.34375 -0.390625 -0.9375 -0.390625q-0.71875 0 -1.09375 0.53125q-0.359375 0.53125 -0.359375 1.703125l0 0.21875q0 1.203125 0.359375 1.71875q0.359375 0.515625 1.109375 0.515625zm5.0805054 2.421875l-1.546875 0l3.84375 -11.3125l1.53125 0l-3.828125 11.3125zm9.00589 -3.03125q0 -0.375 -0.375 -0.59375q-0.375 -0.21875 -1.203125 -0.390625q-2.765625 -0.578125 -2.765625 -2.34375q0 -1.03125 0.859375 -1.71875q0.859375 -0.703125 2.234375 -0.703125q1.46875 0 2.359375 0.703125q0.890625 0.6875 0.890625 1.796875l-2.078125 0q0 -0.4375 -0.28125 -0.71875q-0.28125 -0.296875 -0.890625 -0.296875q-0.53125 0 -0.8125 0.234375q-0.28125 0.234375 -0.28125 0.59375q0 0.34375 0.3125 0.5625q0.328125 0.203125 1.09375 0.359375q0.78125 0.15625 1.3125 0.34375q1.640625 0.609375 1.640625 2.09375q0 1.046875 -0.90625 1.703125q-0.90625 0.65625 -2.34375 0.65625q-0.984375 0 -1.734375 -0.34375q-0.75 -0.34375 -1.1875 -0.953125q-0.421875 -0.609375 -0.421875 -1.3125l1.953125 0q0.03125 0.5625 0.40625 0.859375q0.390625 0.28125 1.015625 0.28125q0.59375 0 0.890625 -0.21875q0.3125 -0.234375 0.3125 -0.59375zm10.316895 -1.65625q0 1.78125 -0.8125 2.859375q-0.8125 1.078125 -2.1875 1.078125q-1.1875 0 -1.90625 -0.8125l0 3.656252l-2.0625 0l0 -10.734377l1.921875 0l0.0625 0.765625q0.75 -0.90625 1.96875 -0.90625q1.421875 0 2.21875 1.0625q0.796875 1.0625 0.796875 2.921875l0 0.109375zm-2.0625 -0.15625q0 -1.078125 -0.390625 -1.65625q-0.375 -0.59375 -1.109375 -0.59375q-0.96875 0 -1.34375 0.75l0 3.15625q0.375 0.765625 1.359375 0.765625q1.484375 0 1.484375 -2.421875zm5.5325623 3.953125l-2.078125 0l0 -7.75l2.078125 0l0 7.75zm-2.203125 -9.75q0 -0.46875 0.3125 -0.765625q0.3125 -0.296875 0.84375 -0.296875q0.53125 0 0.84375 0.296875q0.3125 0.296875 0.3125 0.765625q0 0.46875 -0.3125 0.78125q-0.3125 0.296875 -0.84375 0.296875q-0.515625 0 -0.84375 -0.296875q-0.3125 -0.3125 -0.3125 -0.78125zm5.80777 2.0l0.0625 0.90625q0.828125 -1.046875 2.21875 -1.046875q1.234375 0 1.828125 0.734375q0.609375 0.71875 0.625 2.15625l0 5.0l-2.0625 0l0 -4.953125q0 -0.65625 -0.296875 -0.953125q-0.28125 -0.296875 -0.953125 -0.296875q-0.875 0 -1.3125 0.75l0 5.453125l-2.0625 0l0 -7.75l1.953125 0zm10.317749 4.125l-4.03125 0l0 -1.671875l4.03125 0l0 1.671875zm1.3384094 -0.296875q0 -1.8125 0.8125 -2.890625q0.8125 -1.078125 2.21875 -1.078125q1.140625 0 1.875 0.84375l0 -3.953125l2.078125 0l0 11.0l-1.875 0l-0.09375 -0.828125q-0.78125 0.96875 -1.984375 0.96875q-1.375 0 -2.203125 -1.078125q-0.828125 -1.078125 -0.828125 -2.984375zm2.078125 0.140625q0 1.09375 0.375 1.671875q0.375 0.578125 1.09375 0.578125q0.96875 0 1.359375 -0.8125l0 -3.046875q-0.390625 -0.8125 -1.34375 -0.8125q-1.484375 0 -1.484375 2.421875zm10.070953 3.921875q-1.703125 0 -2.78125 -1.046875q-1.0625 -1.046875 -1.0625 -2.78125l0 -0.203125q0 -1.15625 0.453125 -2.078125q0.453125 -0.921875 1.265625 -1.421875q0.828125 -0.5 1.890625 -0.5q1.59375 0 2.5 1.015625q0.921875 1.0 0.921875 2.828125l0 0.84375l-4.9375 0q0.109375 0.765625 0.609375 1.21875q0.5 0.453125 1.28125 0.453125q1.1875 0 1.859375 -0.859375l1.015625 1.140625q-0.46875 0.65625 -1.265625 1.03125q-0.78125 0.359375 -1.75 0.359375zm-0.234375 -6.359375q-0.625 0 -1.015625 0.421875q-0.375 0.421875 -0.46875 1.1875l2.875 0l0 -0.15625q-0.015625 -0.6875 -0.375 -1.0625q-0.359375 -0.390625 -1.015625 -0.390625zm6.5002136 -1.53125l0.0625 0.90625q0.828125 -1.046875 2.21875 -1.046875q1.234375 0 1.828125 0.734375q0.609375 0.71875 0.625 2.15625l0 5.0l-2.0625 0l0 -4.953125q0 -0.65625 -0.296875 -0.953125q-0.28125 -0.296875 -0.953125 -0.296875q-0.875 0 -1.3125 0.75l0 5.453125l-2.0625 0l0 -7.75l1.953125 0zm10.489624 5.609375q0 -0.375 -0.375 -0.59375q-0.375 -0.21875 -1.203125 -0.390625q-2.765625 -0.578125 -2.765625 -2.34375q0 -1.03125 0.859375 -1.71875q0.859375 -0.703125 2.234375 -0.703125q1.46875 0 2.359375 0.703125q0.890625 0.6875 0.890625 1.796875l-2.078125 0q0 -0.4375 -0.28125 -0.71875q-0.28125 -0.296875 -0.890625 -0.296875q-0.53125 0 -0.8125 0.234375q-0.28125 0.234375 -0.28125 0.59375q0 0.34375 0.3125 0.5625q0.328125 0.203125 1.09375 0.359375q0.78125 0.15625 1.3125 0.34375q1.640625 0.609375 1.640625 2.09375q0 1.046875 -0.90625 1.703125q-0.90625 0.65625 -2.34375 0.65625q-0.984375 0 -1.734375 -0.34375q-0.75 -0.34375 -1.1875 -0.953125q-0.421875 -0.609375 -0.421875 -1.3125l1.953125 0q0.03125 0.5625 0.40625 0.859375q0.390625 0.28125 1.015625 0.28125q0.59375 0 0.890625 -0.21875q0.3125 -0.234375 0.3125 -0.59375zm5.5356445 2.140625l-2.078125 0l0 -7.75l2.078125 0l0 7.75zm-2.203125 -9.75q0 -0.46875 0.3125 -0.765625q0.3125 -0.296875 0.84375 -0.296875q0.53125 0 0.84375 0.296875q0.3125 0.296875 0.3125 0.765625q0 0.46875 -0.3125 0.78125q-0.3125 0.296875 -0.84375 0.296875q-0.515625 0 -0.84375 -0.296875q-0.3125 -0.3125 -0.3125 -0.78125zm6.3703003 0.109375l0 1.890625l1.328125 0l0 1.53125l-1.328125 0l0 3.859375q0 0.421875 0.15625 0.609375q0.171875 0.1875 0.640625 0.1875q0.34375 0 0.609375 -0.046875l0 1.5625q-0.609375 0.1875 -1.25 0.1875q-2.171875 0 -2.21875 -2.1875l0 -4.171875l-1.125 0l0 -1.53125l1.125 0l0 -1.890625l2.0625 0zm5.3740845 6.71875l1.421875 -4.828125l2.21875 0l-3.109375 8.953125l-0.171875 0.4062519q-0.6875 1.515625 -2.28125 1.515625q-0.453125 0 -0.921875 -0.140625l0 -1.5625l0.3125 0.015625q0.59375 0 0.875 -0.1875q0.296875 -0.1718769 0.453125 -0.5937519l0.25 -0.640625l-2.71875 -7.765625l2.234375 0l1.4375 4.828125z" fill-rule="nonzero"/><path fill="#000000" fill-opacity="0.0" d="m0 78.71916l104.125984 0" fill-rule="evenodd"/><path stroke="#0f9d58" stroke-width="3.0" stroke-linejoin="round" stroke-linecap="butt" stroke-dasharray="3.0,9.0" d="m0 78.71916l104.125984 0" fill-rule="evenodd"/><path fill="#000000" fill-opacity="0.0" d="m58.952755 78.71916l45.795277 0" fill-rule="evenodd"/><path stroke="#0f9d58" stroke-width="3.0" stroke-linejoin="round" stroke-linecap="butt" stroke-dasharray="12.0,9.0" d="m58.952755 78.71916l45.795277 0" fill-rule="evenodd"/><path fill="#000000" fill-opacity="0.0" d="m170.84776 96.92126l0 -17.574799" fill-rule="evenodd"/><path stroke="#0f9d58" stroke-width="2.0" stroke-linejoin="round" stroke-linecap="butt" d="m170.84776 96.92126l0 -17.574799" fill-rule="evenodd"/><path fill="#000000" fill-opacity="0.0" d="m117.84777 96.92126l105.984245 0l0 33.85827l-105.984245 0z" fill-rule="evenodd"/><path fill="#d5a6bd" d="m137.41222 114.822266l-2.234375 0l0 3.828125l-1.25 0l0 -9.46875l3.140625 0q1.59375 0 2.453125 0.734375q0.875 0.71875 0.875 2.109375q0 0.890625 -0.484375 1.546875q-0.484375 0.65625 -1.328125 0.984375l2.21875 4.015625l0 0.078125l-1.34375 0l-2.046875 -3.828125zm-2.234375 -1.03125l1.921875 0q0.9375 0 1.484375 -0.46875q0.546875 -0.484375 0.546875 -1.296875q0 -0.875 -0.53125 -1.34375q-0.515625 -0.46875 -1.5 -0.484375l-1.921875 0l0 3.59375zm12.982483 -3.59375l-3.046875 0l0 8.453125l-1.234375 0l0 -8.453125l-3.046875 0l0 -1.015625l7.328125 0l0 1.015625zm1.4057465 8.453125l0 -9.46875l2.6875 0q1.234375 0 2.171875 0.546875q0.953125 0.546875 1.46875 1.5625q0.53125 1.0 0.53125 2.296875l0 0.609375q0 1.34375 -0.515625 2.359375q-0.515625 1.0 -1.484375 1.546875q-0.953125 0.53125 -2.234375 0.546875l-2.625 0zm1.25 -8.453125l0 7.4375l1.3125 0q1.453125 0 2.25 -0.890625q0.8125 -0.90625 0.8125 -2.578125l0 -0.546875q0 -1.609375 -0.765625 -2.5q-0.75 -0.90625 -2.140625 -0.921875l-1.46875 0zm7.333832 7.828125q0 -0.3125 0.1875 -0.515625q0.1875 -0.21875 0.546875 -0.21875q0.375 0 0.5625 0.21875q0.203125 0.203125 0.203125 0.515625q0 0.296875 -0.203125 0.5q-0.1875 0.203125 -0.5625 0.203125q-0.359375 0 -0.546875 -0.203125q-0.1875 -0.203125 -0.1875 -0.5zm0 -6.0q0 -0.3125 0.1875 -0.515625q0.1875 -0.21875 0.546875 -0.21875q0.375 0 0.5625 0.21875q0.203125 0.203125 0.203125 0.515625q0 0.296875 -0.203125 0.5q-0.1875 0.203125 -0.5625 0.203125q-0.359375 0 -0.546875 -0.203125q-0.1875 -0.203125 -0.1875 -0.5zm7.339905 -3.5l0.703125 0.46875q-0.609375 0.828125 -0.625 1.78125l0 0.890625l-1.203125 0l0 -0.75q0 -0.671875 0.3125 -1.3125q0.3125 -0.65625 0.8125 -1.078125zm2.0 0l0.703125 0.46875q-0.609375 0.828125 -0.625 1.78125l0 0.890625l-1.203125 0l0 -0.75q0 -0.671875 0.3125 -1.3125q0.3125 -0.65625 0.8125 -1.078125zm5.456497 8.25q0 -0.484375 -0.375 -0.75q-0.359375 -0.265625 -1.28125 -0.453125q-0.90625 -0.203125 -1.453125 -0.46875q-0.53125 -0.28125 -0.796875 -0.65625q-0.25 -0.390625 -0.25 -0.90625q0 -0.859375 0.734375 -1.453125q0.734375 -0.609375 1.875 -0.609375q1.1875 0 1.9375 0.625q0.75 0.609375 0.75 1.578125l-1.21875 0q0 -0.5 -0.421875 -0.859375q-0.421875 -0.359375 -1.046875 -0.359375q-0.65625 0 -1.03125 0.296875q-0.375 0.28125 -0.375 0.75q0 0.421875 0.34375 0.65625q0.34375 0.21875 1.25 0.421875q0.90625 0.203125 1.453125 0.484375q0.5625 0.265625 0.828125 0.671875q0.28125 0.390625 0.28125 0.953125q0 0.9375 -0.765625 1.515625q-0.75 0.5625 -1.953125 0.5625q-0.84375 0 -1.5 -0.296875q-0.640625 -0.296875 -1.015625 -0.828125q-0.359375 -0.546875 -0.359375 -1.171875l1.203125 0q0.03125 0.609375 0.484375 0.96875q0.453125 0.34375 1.1875 0.34375q0.6875 0 1.09375 -0.265625q0.421875 -0.28125 0.421875 -0.75zm4.4035645 -6.875l0 1.703125l1.3125 0l0 0.9375l-1.3125 0l0 4.359375q0 0.421875 0.171875 0.640625q0.171875 0.21875 0.59375 0.21875q0.21875 0 0.578125 -0.078125l0 0.96875q-0.46875 0.125 -0.921875 0.125q-0.8125 0 -1.21875 -0.484375q-0.40625 -0.484375 -0.40625 -1.390625l0 -4.359375l-1.28125 0l0 -0.9375l1.28125 0l0 -1.703125l1.203125 0zm7.072525 8.75q-0.109375 -0.203125 -0.171875 -0.734375q-0.84375 0.859375 -2.015625 0.859375q-1.03125 0 -1.703125 -0.578125q-0.671875 -0.59375 -0.671875 -1.5q0 -1.09375 0.828125 -1.703125q0.84375 -0.609375 2.359375 -0.609375l1.171875 0l0 -0.5625q0 -0.625 -0.375 -1.0q-0.375 -0.375 -1.109375 -0.375q-0.640625 0 -1.078125 0.328125q-0.4375 0.328125 -0.4375 0.78125l-1.203125 0q0 -0.515625 0.359375 -1.0q0.375 -0.5 1.015625 -0.78125q0.65625 -0.296875 1.421875 -0.296875q1.21875 0 1.90625 0.609375q0.6875 0.609375 0.71875 1.671875l0 3.25q0 0.96875 0.234375 1.53125l0 0.109375l-1.25 0zm-2.0 -0.921875q0.5625 0 1.0625 -0.28125q0.515625 -0.296875 0.734375 -0.765625l0 -1.453125l-0.9375 0q-2.21875 0 -2.21875 1.296875q0 0.5625 0.375 0.890625q0.390625 0.3125 0.984375 0.3125zm10.859146 -2.515625q0 1.609375 -0.75 2.59375q-0.734375 0.96875 -1.984375 0.96875q-1.328125 0 -2.0625 -0.9375l-0.0625 0.8125l-1.109375 0l0 -10.0l1.203125 0l0 3.734375q0.734375 -0.90625 2.015625 -0.90625q1.28125 0 2.015625 0.96875q0.734375 0.96875 0.734375 2.65625l0 0.109375zm-1.203125 -0.140625q0 -1.234375 -0.484375 -1.90625q-0.46875 -0.671875 -1.359375 -0.671875q-1.1875 0 -1.71875 1.109375l0 3.046875q0.5625 1.109375 1.734375 1.109375q0.859375 0 1.34375 -0.671875q0.484375 -0.671875 0.484375 -2.015625zm4.0244293 3.578125l-1.203125 0l0 -10.0l1.203125 0l0 10.0zm4.843796 0.125q-1.421875 0 -2.328125 -0.9375q-0.890625 -0.9375 -0.890625 -2.515625l0 -0.21875q0 -1.046875 0.390625 -1.859375q0.40625 -0.828125 1.125 -1.296875q0.71875 -0.46875 1.5625 -0.46875q1.375 0 2.125 0.90625q0.765625 0.90625 0.765625 2.59375l0 0.5l-4.765625 0q0.015625 1.03125 0.59375 1.671875q0.59375 0.640625 1.484375 0.640625q0.640625 0 1.078125 -0.25q0.453125 -0.265625 0.78125 -0.6875l0.734375 0.5625q-0.875 1.359375 -2.65625 1.359375zm-0.140625 -6.3125q-0.734375 0 -1.234375 0.53125q-0.484375 0.53125 -0.609375 1.484375l3.53125 0l0 -0.078125q-0.046875 -0.921875 -0.5 -1.421875q-0.4375 -0.515625 -1.1875 -0.515625zm4.2824097 -0.625l-0.6875 -0.46875q0.609375 -0.84375 0.625 -1.78125l0 -0.9375l1.1875 0l0 0.84375q0 0.65625 -0.328125 1.3125q-0.3125 0.640625 -0.796875 1.03125zm2.0 0l-0.6875 -0.46875q0.609375 -0.84375 0.625 -1.78125l0 -0.9375l1.1875 0l0 0.84375q0 0.65625 -0.328125 1.3125q-0.3125 0.640625 -0.796875 1.03125z" fill-rule="nonzero"/><path fill="#000000" fill-opacity="0.0" d="m266.67453 16.614174c9.425201 0 14.137817 6.9291325 18.850403 13.858267c4.7125854 6.9291325 9.425201 13.858267 18.850403 13.858267" fill-rule="evenodd"/><path stroke="#999999" stroke-width="2.0" stroke-linejoin="round" stroke-linecap="butt" stroke-dasharray="2.0,6.0" d="m266.67453 16.614174c9.425201 0 14.137817 6.9291325 18.850403 13.858267c2.3562927 3.4645672 4.7125854 6.9291325 7.657959 9.527559c0.73635864 0.6496048 1.5095215 1.245079 2.3287048 1.7728844c0.40957642 0.26390076 0.8306885 0.51088715 1.2644348 0.73926544c0.21688843 0.11418915 0.43692017 0.22372437 0.6602478 0.32839584l0.22671509 0.1029892" fill-rule="evenodd"/><path fill="#999999" stroke="#999999" stroke-width="2.0" stroke-linecap="butt" d="m297.663 42.943535l-2.6578064 1.7474289l6.506836 -0.9519844l-5.596466 -3.4532623z" fill-rule="evenodd"/><path fill="#000000" fill-opacity="0.0" d="m167.08398 0l99.590546 0l0 33.228348l-99.590546 0z" fill-rule="evenodd"/><path fill="#999999" d="m192.53943 10.790422l0 3.34375l-1.125 0l0 -8.53125l3.15625 0q1.390625 0 2.1875 0.71875q0.796875 0.703125 0.796875 1.890625q0 1.234375 -0.78125 1.90625q-0.765625 0.671875 -2.21875 0.671875l-2.015625 0zm0 -0.921875l2.03125 0q0.90625 0 1.375 -0.421875q0.484375 -0.421875 0.484375 -1.21875q0 -0.765625 -0.484375 -1.21875q-0.46875 -0.46875 -1.3125 -0.484375l-2.09375 0l0 3.34375zm9.5859375 0.8125l-2.015625 0l0 3.453125l-1.125 0l0 -8.53125l2.828125 0q1.4375 0 2.203125 0.65625q0.78125 0.65625 0.78125 1.90625q0 0.796875 -0.4375 1.390625q-0.421875 0.59375 -1.1875 0.890625l2.0 3.609375l0 0.078125l-1.203125 0l-1.84375 -3.453125zm-2.015625 -0.921875l1.734375 0q0.84375 0 1.328125 -0.421875q0.5 -0.4375 0.5 -1.171875q0 -0.78125 -0.46875 -1.203125q-0.46875 -0.421875 -1.359375 -0.4375l-1.734375 0l0 3.234375zm9.609375 4.375l0 -5.5l-1.0 0l0 -0.84375l1.0 0l0 -0.640625q0 -1.03125 0.53125 -1.578125q0.546875 -0.5625 1.546875 -0.5625q0.375 0 0.75 0.09375l-0.0625 0.890625q-0.28125 -0.0625 -0.578125 -0.0625q-0.53125 0 -0.828125 0.3125q-0.28125 0.3125 -0.28125 0.875l0 0.671875l1.359375 0l0 0.84375l-1.359375 0l0 5.5l-1.078125 0zm6.6972656 -5.375q-0.25 -0.03125 -0.53125 -0.03125q-1.078125 0 -1.453125 0.90625l0 4.5l-1.078125 0l0 -6.34375l1.046875 0l0.015625 0.734375q0.53125 -0.84375 1.515625 -0.84375q0.3125 0 0.484375 0.078125l0 1.0zm0.5839844 2.140625q0 -0.921875 0.359375 -1.671875q0.375 -0.75 1.03125 -1.140625q0.65625 -0.40625 1.484375 -0.40625q1.296875 0 2.09375 0.890625q0.8125 0.890625 0.8125 2.390625l0 0.078125q0 0.921875 -0.359375 1.65625q-0.359375 0.734375 -1.015625 1.15625q-0.65625 0.40625 -1.515625 0.40625q-1.28125 0 -2.09375 -0.890625q-0.796875 -0.90625 -0.796875 -2.390625l0 -0.078125zm1.09375 0.140625q0 1.046875 0.484375 1.6875q0.5 0.640625 1.3125 0.640625q0.828125 0 1.3125 -0.640625q0.484375 -0.65625 0.484375 -1.828125q0 -1.03125 -0.5 -1.671875q-0.484375 -0.65625 -1.3125 -0.65625q-0.796875 0 -1.296875 0.640625q-0.484375 0.625 -0.484375 1.828125zm7.0625 -3.25l0.03125 0.703125q0.6875 -0.8125 1.875 -0.8125q1.328125 0 1.8125 1.015625q0.3125 -0.453125 0.8125 -0.734375q0.515625 -0.28125 1.203125 -0.28125q2.0937347 0 2.1249847 2.203125l0 4.25l-1.078125 0l0 -4.1875q0 -0.671875 -0.3125 -1.0q-0.3125 -0.34375 -1.0468597 -0.34375q-0.609375 0 -1.015625 0.359375q-0.390625 0.359375 -0.453125 0.96875l0 4.203125l-1.078125 0l0 -4.15625q0 -1.375 -1.359375 -1.375q-1.0625 0 -1.453125 0.90625l0 4.625l-1.09375 0l0 -6.34375l1.03125 0zm16.378891 6.34375q-0.09375 -0.1875 -0.15625 -0.671875q-0.75 0.796875 -1.796875 0.796875q-0.9375 0 -1.546875 -0.53125q-0.59375 -0.53125 -0.59375 -1.359375q0 -0.984375 0.75 -1.53125q0.75 -0.546875 2.125 -0.546875l1.046875 0l0 -0.5q0 -0.5625 -0.34375 -0.890625q-0.328125 -0.34375 -1.0 -0.34375q-0.578125 0 -0.96875 0.296875q-0.390625 0.28125 -0.390625 0.703125l-1.09375 0q0 -0.484375 0.328125 -0.921875q0.34375 -0.4375 0.921875 -0.6875q0.578125 -0.265625 1.265625 -0.265625q1.109375 0 1.71875 0.546875q0.625 0.546875 0.65625 1.5l0 2.921875q0 0.875 0.21875 1.390625l0 0.09375l-1.140625 0zm-1.796875 -0.828125q0.515625 0 0.96875 -0.265625q0.453125 -0.265625 0.65625 -0.6875l0 -1.296875l-0.84375 0q-2.0 0 -2.0 1.171875q0 0.5 0.34375 0.796875q0.34375 0.28125 0.875 0.28125z" fill-rule="nonzero"/><path fill="#999999" d="m179.57849 28.134174l0 -5.5l-1.0 0l0 -0.84375l1.0 0l0 -0.640625q0 -1.03125 0.53125 -1.578125q0.546875 -0.5625 1.546875 -0.5625q0.375 0 0.75 0.09375l-0.0625 0.890625q-0.28125 -0.0625 -0.578125 -0.0625q-0.53125 0 -0.828125 0.3125q-0.28125 0.3125 -0.28125 0.875l0 0.671875l1.359375 0l0 0.84375l-1.359375 0l0 5.5l-1.078125 0zm6.1191406 0.125q-1.296875 0 -2.109375 -0.84375q-0.796875 -0.859375 -0.796875 -2.28125l0 -0.1875q0 -0.953125 0.359375 -1.6875q0.359375 -0.75 1.0 -1.15625q0.65625 -0.421875 1.40625 -0.421875q1.234375 0 1.921875 0.8125q0.6875 0.8125 0.6875 2.328125l0 0.453125l-4.296875 0q0.03125 0.9375 0.546875 1.515625q0.53125 0.578125 1.34375 0.578125q0.5625 0 0.953125 -0.234375q0.40625 -0.234375 0.71875 -0.625l0.65625 0.515625q-0.796875 1.234375 -2.390625 1.234375zm-0.140625 -5.6875q-0.65625 0 -1.109375 0.484375q-0.4375 0.46875 -0.53125 1.328125l3.171875 0l0 -0.078125q-0.046875 -0.828125 -0.453125 -1.28125q-0.390625 -0.453125 -1.078125 -0.453125zm7.779297 5.5625q-0.09375 -0.1875 -0.15625 -0.671875q-0.75 0.796875 -1.796875 0.796875q-0.9375 0 -1.546875 -0.53125q-0.59375 -0.53125 -0.59375 -1.359375q0 -0.984375 0.75 -1.53125q0.75 -0.546875 2.125 -0.546875l1.046875 0l0 -0.5q0 -0.5625 -0.34375 -0.890625q-0.328125 -0.34375 -1.0 -0.34375q-0.578125 0 -0.96875 0.296875q-0.390625 0.28125 -0.390625 0.703125l-1.09375 0q0 -0.484375 0.328125 -0.921875q0.34375 -0.4375 0.921875 -0.6875q0.578125 -0.265625 1.265625 -0.265625q1.109375 0 1.71875 0.546875q0.625 0.546875 0.65625 1.5l0 2.921875q0 0.875 0.21875 1.390625l0 0.09375l-1.140625 0zm-1.796875 -0.828125q0.515625 0 0.96875 -0.265625q0.453125 -0.265625 0.65625 -0.6875l0 -1.296875l-0.84375 0q-2.0 0 -2.0 1.171875q0 0.5 0.34375 0.796875q0.34375 0.28125 0.875 0.28125zm5.8867188 -7.046875l0 1.53125l1.171875 0l0 0.84375l-1.171875 0l0 3.921875q0 0.390625 0.15625 0.578125q0.15625 0.1875 0.53125 0.1875q0.1875 0 0.515625 -0.0625l0 0.875q-0.421875 0.125 -0.828125 0.125q-0.71875 0 -1.09375 -0.4375q-0.375 -0.453125 -0.375 -1.265625l0 -3.921875l-1.15625 0l0 -0.84375l1.15625 0l0 -1.53125l1.09375 0zm6.357422 7.25q-0.625 0.75 -1.859375 0.75q-1.015625 0 -1.546875 -0.59375q-0.53125 -0.59375 -0.53125 -1.75l0 -4.125l1.078125 0l0 4.09375q0 1.453125 1.171875 1.453125q1.25 0 1.65625 -0.9375l0 -4.609375l1.09375 0l0 6.34375l-1.03125 0l-0.03125 -0.625zm5.7714844 -4.75q-0.25 -0.03125 -0.53125 -0.03125q-1.078125 0 -1.453125 0.90625l0 4.5l-1.078125 0l0 -6.34375l1.046875 0l0.015625 0.734375q0.53125 -0.84375 1.515625 -0.84375q0.3125 0 0.484375 0.078125l0 1.0zm3.5117188 5.5q-1.296875 0 -2.109375 -0.84375q-0.796875 -0.859375 -0.796875 -2.28125l0 -0.1875q0 -0.953125 0.359375 -1.6875q0.359375 -0.75 1.0 -1.15625q0.65625 -0.421875 1.40625 -0.421875q1.234375 0 1.921875 0.8125q0.6875 0.8125 0.6875 2.328125l0 0.453125l-4.296875 0q0.03125 0.9375 0.546875 1.515625q0.53125 0.578125 1.34375 0.578125q0.5625 0 0.953125 -0.234375q0.40625 -0.234375 0.71875 -0.625l0.65625 0.515625q-0.796875 1.234375 -2.390625 1.234375zm-0.140625 -5.6875q-0.65625 0 -1.109375 0.484375q-0.4375 0.46875 -0.53125 1.328125l3.171875 0l0 -0.078125q-0.046875 -0.828125 -0.453125 -1.28125q-0.390625 -0.453125 -1.078125 -0.453125zm12.203125 2.46875q0 1.453125 -0.671875 2.34375q-0.65625 0.875 -1.78125 0.875q-1.203125 0 -1.859375 -0.859375l-0.0625 0.734375l-0.984375 0l0 -9.0l1.078125 0l0 3.359375q0.65625 -0.8125 1.8125 -0.8125q1.15625 0 1.8125 0.875q0.65625 0.859375 0.65625 2.390625l0 0.09375zm-1.078125 -0.125q0 -1.109375 -0.4375 -1.703125q-0.421875 -0.609375 -1.21875 -0.609375q-1.078125 0 -1.546875 0.984375l0 2.75q0.5 1.0 1.546875 1.0q0.78125 0 1.21875 -0.609375q0.4375 -0.609375 0.4375 -1.8125zm5.513672 -2.15625q-0.25 -0.03125 -0.53125 -0.03125q-1.078125 0 -1.453125 0.90625l0 4.5l-1.078125 0l0 -6.34375l1.046875 0l0.015625 0.734375q0.53125 -0.84375 1.515625 -0.84375q0.3125 0 0.484375 0.078125l0 1.0zm4.6699066 5.375q-0.09375 -0.1875 -0.15625 -0.671875q-0.75 0.796875 -1.796875 0.796875q-0.9375 0 -1.5468597 -0.53125q-0.59375 -0.53125 -0.59375 -1.359375q0 -0.984375 0.75 -1.53125q0.74998474 -0.546875 2.1249847 -0.546875l1.046875 0l0 -0.5q0 -0.5625 -0.34375 -0.890625q-0.328125 -0.34375 -1.0 -0.34375q-0.578125 0 -0.96875 0.296875q-0.390625 0.28125 -0.390625 0.703125l-1.0937347 0q0 -0.484375 0.328125 -0.921875q0.34375 -0.4375 0.92185974 -0.6875q0.578125 -0.265625 1.265625 -0.265625q1.109375 0 1.71875 0.546875q0.625 0.546875 0.65625 1.5l0 2.921875q0 0.875 0.21875 1.390625l0 0.09375l-1.140625 0zm-1.796875 -0.828125q0.515625 0 0.96875 -0.265625q0.453125 -0.265625 0.65625 -0.6875l0 -1.296875l-0.84375 0q-2.0 0 -2.0 1.171875q0 0.5 0.34375 0.796875q0.34375 0.28125 0.875 0.28125zm5.4335938 -5.515625l0.03125 0.796875q0.734375 -0.90625 1.90625 -0.90625q2.015625 0 2.03125 2.265625l0 4.1875l-1.09375 0l0 -4.203125q0 -0.671875 -0.3125 -1.0q-0.296875 -0.328125 -0.953125 -0.328125q-0.53125 0 -0.9375 0.28125q-0.390625 0.28125 -0.609375 0.734375l0 4.515625l-1.078125 0l0 -6.34375l1.015625 0zm8.136719 5.578125q0.578125 0 1.015625 -0.34375q0.4375 -0.359375 0.484375 -0.890625l1.03125 0q-0.03125 0.546875 -0.390625 1.046875q-0.34375 0.484375 -0.921875 0.78125q-0.5625 0.296875 -1.21875 0.296875q-1.296875 0 -2.0625 -0.859375q-0.75 -0.875 -0.75 -2.375l0 -0.1875q0 -0.921875 0.328125 -1.640625q0.34375 -0.71875 0.96875 -1.109375q0.640625 -0.40625 1.515625 -0.40625q1.0625 0 1.765625 0.640625q0.71875 0.625 0.765625 1.65625l-1.03125 0q-0.046875 -0.625 -0.46875 -1.015625q-0.421875 -0.390625 -1.03125 -0.390625q-0.828125 0 -1.28125 0.59375q-0.453125 0.59375 -0.453125 1.71875l0 0.203125q0 1.09375 0.453125 1.6875q0.453125 0.59375 1.28125 0.59375zm4.828125 -4.8125q0.71875 -0.875 1.875 -0.875q2.015625 0 2.03125 2.265625l0 4.1875l-1.09375 0l0 -4.203125q0 -0.671875 -0.3125 -1.0q-0.296875 -0.328125 -0.953125 -0.328125q-0.53125 0 -0.9375 0.28125q-0.390625 0.28125 -0.609375 0.734375l0 4.515625l-1.078125 0l0 -9.0l1.078125 0l0 3.421875z" fill-rule="nonzero"/><path fill="#000000" fill-opacity="0.0" d="m211.76903 139.98688l37.88977 0l0 21.952759l-37.88977 0z" fill-rule="evenodd"/><path fill="#999999" d="m225.3438 152.13951l0 3.34375l-1.125 0l0 -8.53125l3.15625 0q1.390625 0 2.1875 0.71875q0.796875 0.703125 0.796875 1.890625q0 1.234375 -0.78125 1.90625q-0.765625 0.671875 -2.21875 0.671875l-2.015625 0zm0 -0.921875l2.03125 0q0.90625 0 1.375 -0.421875q0.484375 -0.421875 0.484375 -1.21875q0 -0.765625 -0.484375 -1.21875q-0.46875 -0.46875 -1.3125 -0.484375l-2.09375 0l0 3.34375zm9.5859375 0.8125l-2.015625 0l0 3.453125l-1.125 0l0 -8.53125l2.828125 0q1.4375 0 2.203125 0.65625q0.78125 0.65625 0.78125 1.90625q0 0.796875 -0.4375 1.390625q-0.421875 0.59375 -1.1875 0.890625l2.0 3.609375l0 0.078125l-1.203125 0l-1.84375 -3.453125zm-2.015625 -0.921875l1.734375 0q0.84375 0 1.328125 -0.421875q0.5 -0.4375 0.5 -1.171875q0 -0.78125 -0.46875 -1.203125q-0.46875 -0.421875 -1.359375 -0.4375l-1.734375 0l0 3.234375z" fill-rule="nonzero"/><path fill="#000000" fill-opacity="0.0" d="m428.31497 96.92126l95.33859 0l0 33.85827l-95.33859 0z" fill-rule="evenodd"/><path fill="#d5a6bd" d="m443.8125 114.822266l-2.234375 0l0 3.828125l-1.25 0l0 -9.46875l3.140625 0q1.59375 0 2.453125 0.734375q0.875 0.71875 0.875 2.109375q0 0.890625 -0.484375 1.546875q-0.484375 0.65625 -1.328125 0.984375l2.21875 4.015625l0 0.078125l-1.34375 0l-2.046875 -3.828125zm-2.234375 -1.03125l1.921875 0q0.9375 0 1.484375 -0.46875q0.546875 -0.484375 0.546875 -1.296875q0 -0.875 -0.53125 -1.34375q-0.515625 -0.46875 -1.5 -0.484375l-1.921875 0l0 3.59375zm12.982483 -3.59375l-3.046875 0l0 8.453125l-1.234375 0l0 -8.453125l-3.046875 0l0 -1.015625l7.328125 0l0 1.015625zm1.4057312 8.453125l0 -9.46875l2.6875 0q1.234375 0 2.171875 0.546875q0.953125 0.546875 1.46875 1.5625q0.53125 1.0 0.53125 2.296875l0 0.609375q0 1.34375 -0.515625 2.359375q-0.515625 1.0 -1.484375 1.546875q-0.953125 0.53125 -2.234375 0.546875l-2.625 0zm1.25 -8.453125l0 7.4375l1.3125 0q1.453125 0 2.25 -0.890625q0.8125 -0.90625 0.8125 -2.578125l0 -0.546875q0 -1.609375 -0.765625 -2.5q-0.75 -0.90625 -2.140625 -0.921875l-1.46875 0zm7.333832 7.828125q0 -0.3125 0.1875 -0.515625q0.1875 -0.21875 0.546875 -0.21875q0.375 0 0.5625 0.21875q0.203125 0.203125 0.203125 0.515625q0 0.296875 -0.203125 0.5q-0.1875 0.203125 -0.5625 0.203125q-0.359375 0 -0.546875 -0.203125q-0.1875 -0.203125 -0.1875 -0.5zm0 -6.0q0 -0.3125 0.1875 -0.515625q0.1875 -0.21875 0.546875 -0.21875q0.375 0 0.5625 0.21875q0.203125 0.203125 0.203125 0.515625q0 0.296875 -0.203125 0.5q-0.1875 0.203125 -0.5625 0.203125q-0.359375 0 -0.546875 -0.203125q-0.1875 -0.203125 -0.1875 -0.5zm7.339905 -3.5l0.703125 0.46875q-0.609375 0.828125 -0.625 1.78125l0 0.890625l-1.203125 0l0 -0.75q0 -0.671875 0.3125 -1.3125q0.3125 -0.65625 0.8125 -1.078125zm2.0 0l0.703125 0.46875q-0.609375 0.828125 -0.625 1.78125l0 0.890625l-1.203125 0l0 -0.75q0 -0.671875 0.3125 -1.3125q0.3125 -0.65625 0.8125 -1.078125zm3.1804504 10.125l-1.203125 0l0 -10.0l1.203125 0l0 10.0zm6.281311 0q-0.109375 -0.203125 -0.171875 -0.734375q-0.84375 0.859375 -2.015625 0.859375q-1.03125 0 -1.703125 -0.578125q-0.671875 -0.59375 -0.671875 -1.5q0 -1.09375 0.828125 -1.703125q0.84375 -0.609375 2.359375 -0.609375l1.171875 0l0 -0.5625q0 -0.625 -0.375 -1.0q-0.375 -0.375 -1.109375 -0.375q-0.640625 0 -1.078125 0.328125q-0.4375 0.328125 -0.4375 0.78125l-1.203125 0q0 -0.515625 0.359375 -1.0q0.375 -0.5 1.015625 -0.78125q0.65625 -0.296875 1.421875 -0.296875q1.21875 0 1.90625 0.609375q0.6875 0.609375 0.71875 1.671875l0 3.25q0 0.96875 0.234375 1.53125l0 0.109375l-1.25 0zm-2.0 -0.921875q0.5625 0 1.0625 -0.28125q0.515625 -0.296875 0.734375 -0.765625l0 -1.453125l-0.9375 0q-2.21875 0 -2.21875 1.296875q0 0.5625 0.375 0.890625q0.390625 0.3125 0.984375 0.3125zm6.531006 -7.828125l0 1.703125l1.3125 0l0 0.9375l-1.3125 0l0 4.359375q0 0.421875 0.171875 0.640625q0.171875 0.21875 0.59375 0.21875q0.21875 0 0.578125 -0.078125l0 0.96875q-0.46875 0.125 -0.921875 0.125q-0.8125 0 -1.21875 -0.484375q-0.40625 -0.484375 -0.40625 -1.390625l0 -4.359375l-1.28125 0l0 -0.9375l1.28125 0l0 -1.703125l1.203125 0zm5.6350403 8.875q-1.421875 0 -2.328125 -0.9375q-0.890625 -0.9375 -0.890625 -2.515625l0 -0.21875q0 -1.046875 0.390625 -1.859375q0.40625 -0.828125 1.125 -1.296875q0.71875 -0.46875 1.5625 -0.46875q1.375 0 2.125 0.90625q0.765625 0.90625 0.765625 2.59375l0 0.5l-4.765625 0q0.015625 1.03125 0.59375 1.671875q0.59375 0.640625 1.484375 0.640625q0.640625 0 1.078125 -0.25q0.453125 -0.265625 0.78125 -0.6875l0.734375 0.5625q-0.875 1.359375 -2.65625 1.359375zm-0.140625 -6.3125q-0.734375 0 -1.234375 0.53125q-0.484375 0.53125 -0.609375 1.484375l3.53125 0l0 -0.078125q-0.046875 -0.921875 -0.5 -1.421875q-0.4375 -0.515625 -1.1875 -0.515625zm8.38916 4.3125q0 -0.484375 -0.375 -0.75q-0.359375 -0.265625 -1.28125 -0.453125q-0.90625 -0.203125 -1.453125 -0.46875q-0.53125 -0.28125 -0.796875 -0.65625q-0.25 -0.390625 -0.25 -0.90625q0 -0.859375 0.734375 -1.453125q0.734375 -0.609375 1.875 -0.609375q1.1875 0 1.9375 0.625q0.75 0.609375 0.75 1.578125l-1.21875 0q0 -0.5 -0.421875 -0.859375q-0.421875 -0.359375 -1.046875 -0.359375q-0.65625 0 -1.03125 0.296875q-0.375 0.28125 -0.375 0.75q0 0.421875 0.34375 0.65625q0.34375 0.21875 1.25 0.421875q0.90625 0.203125 1.453125 0.484375q0.5625 0.265625 0.828125 0.671875q0.28125 0.390625 0.28125 0.953125q0 0.9375 -0.765625 1.515625q-0.75 0.5625 -1.953125 0.5625q-0.84375 0 -1.5 -0.296875q-0.640625 -0.296875 -1.015625 -0.828125q-0.359375 -0.546875 -0.359375 -1.171875l1.203125 0q0.03125 0.609375 0.484375 0.96875q0.453125 0.34375 1.1875 0.34375q0.6875 0 1.09375 -0.265625q0.421875 -0.28125 0.421875 -0.75zm4.4035645 -6.875l0 1.703125l1.3125 0l0 0.9375l-1.3125 0l0 4.359375q0 0.421875 0.171875 0.640625q0.171875 0.21875 0.59375 0.21875q0.21875 0 0.578125 -0.078125l0 0.96875q-0.46875 0.125 -0.921875 0.125q-0.8125 0 -1.21875 -0.484375q-0.40625 -0.484375 -0.40625 -1.390625l0 -4.359375l-1.28125 0l0 -0.9375l1.28125 0l0 -1.703125l1.203125 0zm2.8069153 1.9375l-0.6875 -0.46875q0.609375 -0.84375 0.625 -1.78125l0 -0.9375l1.1875 0l0 0.84375q0 0.65625 -0.328125 1.3125q-0.3125 0.640625 -0.796875 1.03125zm2.0 0l-0.6875 -0.46875q0.609375 -0.84375 0.625 -1.78125l0 -0.9375l1.1874695 0l0 0.84375q0 0.65625 -0.32809448 1.3125q-0.3125 0.640625 -0.796875 1.03125z" fill-rule="nonzero"/><path fill="#000000" fill-opacity="0.0" d="m230.71391 139.98688c0 -8.125992 4.9370117 -12.18898 9.874008 -16.251968c4.9370117 -4.062996 9.874023 -8.125984 9.874023 -16.251968" fill-rule="evenodd"/><path stroke="#999999" stroke-width="2.0" stroke-linejoin="round" stroke-linecap="butt" stroke-dasharray="2.0,6.0" d="m230.71391 139.98688c0 -8.125992 4.9370117 -12.18898 9.874008 -16.251968c2.4685059 -2.0314941 4.9370117 -4.062996 6.788391 -6.6023636c0.46284485 -0.6348419 0.8871155 -1.3014297 1.2631836 -2.0076904c0.09402466 -0.17656708 0.18501282 -0.3556137 0.2728424 -0.53725433c0.043930054 -0.09082794 0.08705139 -0.18230438 0.12936401 -0.27444458l0.05105591 -0.11418152" fill-rule="evenodd"/><path fill="#999999" stroke="#999999" stroke-width="2.0" stroke-linecap="butt" d="m249.09277 114.19897l1.7545471 2.6531296l-0.96943665 -6.50428l-3.4382324 5.6056976z" fill-rule="evenodd"/><path fill="#000000" fill-opacity="0.0" d="m410.27298 136.13649l37.88974 0l0 21.952744l-37.88974 0z" fill-rule="evenodd"/><path fill="#999999" d="m423.84772 148.28911l0 3.34375l-1.125 0l0 -8.53125l3.15625 0q1.390625 0 2.1875 0.71875q0.796875 0.703125 0.796875 1.890625q0 1.234375 -0.78125 1.90625q-0.765625 0.671875 -2.21875 0.671875l-2.015625 0zm0 -0.921875l2.03125 0q0.90625 0 1.375 -0.421875q0.484375 -0.421875 0.484375 -1.21875q0 -0.765625 -0.484375 -1.21875q-0.46875 -0.46875 -1.3125 -0.484375l-2.09375 0l0 3.34375zm9.5859375 0.8125l-2.015625 0l0 3.453125l-1.125 0l0 -8.53125l2.828125 0q1.4375 0 2.203125 0.65625q0.78125 0.65625 0.78125 1.90625q0 0.796875 -0.4375 1.390625q-0.421875 0.59375 -1.1875 0.890625l2.0 3.609375l0 0.078125l-1.203125 0l-1.84375 -3.453125zm-2.015625 -0.921875l1.734375 0q0.84375 0 1.328125 -0.421875q0.5 -0.4375 0.5 -1.171875q0 -0.78125 -0.46875 -1.203125q-0.46875 -0.421875 -1.359375 -0.4375l-1.734375 0l0 3.234375z" fill-rule="nonzero"/><path fill="#000000" fill-opacity="0.0" d="m429.21783 136.13649c0 -10.47245 -13.905487 -20.944885 -27.811005 -20.944885" fill-rule="evenodd"/><path stroke="#999999" stroke-width="2.0" stroke-linejoin="round" stroke-linecap="butt" stroke-dasharray="2.0,6.0" d="m429.21783 136.13649c0 -5.2362213 -3.4763794 -10.47245 -8.690918 -14.399612c-2.6072998 -1.9635849 -5.6491394 -3.5998993 -8.908234 -4.745323c-0.8147888 -0.2863617 -1.6431274 -0.54203796 -2.481659 -0.76446533c-0.20965576 -0.055610657 -0.41992188 -0.10914612 -0.63079834 -0.16056061l-0.29284668 -0.06826782" fill-rule="evenodd"/><path fill="#999999" stroke="#999999" stroke-width="2.0" stroke-linecap="butt" d="m408.21338 115.99825l2.49823 -1.9688339l-6.401306 1.506279l5.871887 2.9607925z" fill-rule="evenodd"/><path fill="#000000" fill-opacity="0.0" d="m329.07217 41.67848l37.88977 0l0 21.952755l-37.88977 0z" fill-rule="evenodd"/><path fill="#999999" d="m342.64694 53.831104l0 3.34375l-1.125 0l0 -8.53125l3.15625 0q1.390625 0 2.1875 0.71875q0.796875 0.703125 0.796875 1.890625q0 1.234375 -0.78125 1.90625q-0.765625 0.671875 -2.21875 0.671875l-2.015625 0zm0 -0.921875l2.03125 0q0.90625 0 1.375 -0.421875q0.484375 -0.421875 0.484375 -1.21875q0 -0.765625 -0.484375 -1.21875q-0.46875 -0.46875 -1.3125 -0.484375l-2.09375 0l0 3.34375zm9.5859375 0.8125l-2.015625 0l0 3.453125l-1.125 0l0 -8.53125l2.828125 0q1.4375 0 2.203125 0.65625q0.78125 0.65625 0.78125 1.90625q0 0.796875 -0.4375 1.390625q-0.421875 0.59375 -1.1875 0.890625l2.0 3.609375l0 0.078125l-1.203125 0l-1.84375 -3.453125zm-2.015625 -0.921875l1.734375 0q0.84375 0 1.328125 -0.421875q0.5 -0.4375 0.5 -1.171875q0 -0.78125 -0.46875 -1.203125q-0.46875 -0.421875 -1.359375 -0.4375l-1.734375 0l0 3.234375z" fill-rule="nonzero"/><path fill="#000000" fill-opacity="0.0" d="m329.07217 52.654854c-11.574799 0 -23.149597 12.3937 -23.149597 24.787407" fill-rule="evenodd"/><path stroke="#999999" stroke-width="2.0" stroke-linejoin="round" stroke-linecap="butt" stroke-dasharray="2.0,6.0" d="m329.07217 52.654854c-5.787384 0 -11.574799 3.0984268 -15.915344 7.746063c-2.170288 2.323822 -3.9788513 5.0349426 -5.2448425 7.9397125c-0.3164978 0.7261963 -0.5990906 1.4644928 -0.8449402 2.2118683l-0.039520264 0.12523651" fill-rule="evenodd"/><path fill="#999999" stroke="#999999" stroke-width="2.0" stroke-linecap="butt" d="m307.02753 70.677734l-1.8571777 -2.5823364l1.2235718 6.461296l3.2159424 -5.736122z" fill-rule="evenodd"/></g></svg>